<?xml version="1.0" encoding="utf-8"?>
<!-- Generator: Adobe Illustrator 16.0.0, SVG Export Plug-In . SVG Version: 6.00 Build 0)  -->
<!DOCTYPE svg PUBLIC "-//W3C//DTD SVG 1.1//EN" "http://www.w3.org/Graphics/SVG/1.1/DTD/svg11.dtd">
<svg version="1.1" id="Layer_1" xmlns="http://www.w3.org/2000/svg" xmlns:xlink="http://www.w3.org/1999/xlink" x="0px" y="0px"
	 width="45px" height="45px" viewBox="0 0 45 45" enable-background="new 0 0 45 45" xml:space="preserve">
<path fill-rule="evenodd" clip-rule="evenodd" fill="#3498CB" d="M22.5,0C34.927,0,45,10.073,45,22.5C45,34.926,34.927,45,22.5,45
	S0,34.926,0,22.5C0,10.073,10.073,0,22.5,0z"/>
<g>
	<g>
		<path fill="#FFFFFF" d="M34.61,11.553h-2.186c-0.725,0-1.341,0.473-1.557,1.127c-0.966,0.146-1.261,0.756-1.405,1.297
			l-0.522,1.955H10.563c-0.17,0-0.33,0.079-0.434,0.214s-0.139,0.31-0.095,0.475l0.586,2.189c0.064,0.24,0.28,0.406,0.527,0.406
			h0.46l1.356,5.069c0.001,0.005,0.003,0.01,0.004,0.014c0.002,0.008,0.005,0.018,0.008,0.025s0.007,0.018,0.01,0.025
			c0.003,0.006,0.005,0.014,0.008,0.02c0.014,0.031,0.03,0.06,0.049,0.086c0.001,0.002,0.003,0.004,0.004,0.005
			c0.008,0.013,0.018,0.024,0.026,0.035c0.003,0.003,0.006,0.007,0.009,0.009c0.008,0.01,0.016,0.019,0.024,0.027
			c0.004,0.004,0.008,0.008,0.012,0.011c0.008,0.008,0.017,0.015,0.024,0.022c0.005,0.004,0.009,0.008,0.014,0.012l0.026,0.018
			c0.005,0.004,0.01,0.008,0.015,0.01c0.013,0.01,0.026,0.018,0.04,0.023c0.006,0.004,0.012,0.006,0.018,0.01l0.026,0.012
			c0.007,0.002,0.014,0.006,0.02,0.008c0.01,0.004,0.02,0.006,0.029,0.01l0.018,0.006c0.012,0.002,0.024,0.006,0.037,0.008
			c0.004,0.002,0.007,0.002,0.011,0.002c0.019,0.004,0.037,0.006,0.056,0.008l12.867,1.043l-0.307,1.148H14.371
			c-0.302,0-0.547,0.246-0.547,0.548s0.245,0.548,0.547,0.548h1.513l-0.304,1.137c-1,0.201-1.756,1.088-1.756,2.148
			c0,1.207,0.981,2.189,2.187,2.189h2.732c0.302,0,0.547-0.246,0.547-0.548s-0.245-0.548-0.547-0.548h-0.841
			c0.187-0.322,0.295-0.695,0.295-1.094c0-0.969-0.632-1.793-1.504-2.08l0.322-1.205h6.771l0.322,1.205
			c-0.872,0.287-1.503,1.111-1.503,2.08c0,1.207,0.98,2.189,2.186,2.189h5.466c0.302,0,0.547-0.246,0.547-0.548
			s-0.245-0.548-0.547-0.548h-3.573c0.187-0.322,0.294-0.695,0.294-1.094c0-1.061-0.756-1.947-1.755-2.148l-0.305-1.137h1.514
			c0.017,0,0.034-0.002,0.052-0.004h0.013c0.012-0.002,0.024-0.004,0.036-0.006c0.007-0.002,0.013-0.004,0.019-0.004
			c0.01-0.002,0.02-0.006,0.029-0.008l0.021-0.006c0.009-0.004,0.018-0.006,0.026-0.01c0.006-0.002,0.014-0.005,0.021-0.008
			c0.014-0.006,0.026-0.013,0.04-0.02l0.021-0.012c0.007-0.004,0.015-0.009,0.021-0.014c0.007-0.004,0.013-0.008,0.019-0.013
			c0.008-0.005,0.015-0.011,0.021-0.017c0.006-0.004,0.011-0.008,0.017-0.014c0.008-0.006,0.015-0.013,0.022-0.02
			c0.004-0.004,0.009-0.008,0.013-0.013c0.009-0.009,0.017-0.019,0.024-0.027c0.003-0.003,0.006-0.005,0.008-0.009
			c0.011-0.012,0.021-0.025,0.03-0.039c0.002-0.004,0.004-0.008,0.006-0.01c0.007-0.011,0.013-0.021,0.019-0.031
			c0.004-0.008,0.008-0.014,0.011-0.021c0.004-0.008,0.008-0.015,0.011-0.022c0.004-0.009,0.007-0.017,0.011-0.025
			c0.003-0.007,0.005-0.013,0.007-0.02c0.004-0.009,0.007-0.019,0.009-0.028c0.001-0.002,0.002-0.006,0.003-0.008l0.583-2.182
			c0.001-0.002,0.001-0.004,0.002-0.004l1.649-6.168h0.459c0.248,0,0.464-0.166,0.528-0.406l0.586-2.19
			c0.044-0.164,0.009-0.34-0.095-0.475s-0.264-0.214-0.434-0.214h-0.166l0.447-1.671c0.063-0.24,0.107-0.403,0.375-0.476
			c0.237,0.615,0.834,1.052,1.53,1.052h2.186c0.904,0,1.64-0.737,1.64-1.643S35.515,11.553,34.61,11.553z M17.104,31.263
			c0,0.602-0.489,1.092-1.09,1.094h-0.003c-0.001,0-0.001,0-0.001,0c-0.603,0-1.092-0.49-1.092-1.094s0.489-1.096,1.092-1.096h0.002
			C16.614,30.168,17.104,30.66,17.104,31.263z M25.885,31.263c0,0.602-0.489,1.092-1.091,1.094H24.79
			c-0.603,0-1.092-0.49-1.092-1.094s0.489-1.095,1.092-1.096h0.002C25.395,30.167,25.885,30.66,25.885,31.263z M27.769,20.313H21.63
			c-0.302,0-0.547,0.245-0.547,0.548s0.245,0.547,0.547,0.547h5.846l-0.292,1.096h-2.86c-0.302,0-0.546,0.244-0.546,0.547
			s0.244,0.547,0.546,0.547h2.567l-0.284,1.061L13.921,23.63l-1.181-4.413h15.321L27.769,20.313z M29.233,18.123H11.568
			l-0.293-1.095h18.083c0,0,0.001,0,0.002,0h0.166L29.233,18.123z M34.61,13.743h-2.186c-0.302,0-0.547-0.246-0.547-0.547
			c0-0.302,0.245-0.547,0.547-0.547h2.186c0.302,0,0.547,0.245,0.547,0.547C35.157,13.498,34.912,13.743,34.61,13.743z
			 M19.499,21.408h0.327c0.303,0,0.547-0.245,0.547-0.547s-0.244-0.548-0.547-0.548h-0.327c-0.302,0-0.547,0.245-0.547,0.548
			S19.197,21.408,19.499,21.408z"/>
	</g>
</g>
</svg>
