<?xml version="1.0" encoding="utf-8"?>
<!-- Generator: Adobe Illustrator 16.0.0, SVG Export Plug-In . SVG Version: 6.00 Build 0)  -->
<!DOCTYPE svg PUBLIC "-//W3C//DTD SVG 1.1//EN" "http://www.w3.org/Graphics/SVG/1.1/DTD/svg11.dtd">
<svg version="1.1" id="Layer_1" xmlns="http://www.w3.org/2000/svg" xmlns:xlink="http://www.w3.org/1999/xlink" x="0px" y="0px"
	 width="39.667px" height="40.124px" viewBox="0 0 39.667 40.124" enable-background="new 0 0 39.667 40.124" xml:space="preserve">
<g>
	<g>
		<path fill="#3498CB" d="M38.586,18.357h-7.774L27.874,7.4c1.199-0.681,2.01-1.969,2.01-3.443C29.884,1.775,28.108,0,25.926,0
			c-2.182,0-3.957,1.775-3.957,3.958c0,2.182,1.775,3.958,3.957,3.958c0.013,0,0.024-0.001,0.037-0.001l2.8,10.443H10.813
			l2.799-10.443c0.013,0,0.024,0.001,0.037,0.001c2.182,0,3.957-1.775,3.957-3.958C17.606,1.775,15.831,0,13.649,0
			c-2.183,0-3.958,1.775-3.958,3.958c0,1.474,0.812,2.762,2.01,3.443L8.765,18.357H0.989C0.443,18.357,0,18.8,0,19.347v3.958
			c0,0.547,0.443,0.989,0.989,0.989h1.259l0.723,9.671c0.262,3.512,2.941,6.159,6.23,6.159h21.173c3.29,0,5.968-2.647,6.23-6.159
			l0.724-9.671h1.258c0.547,0,0.989-0.442,0.989-0.989v-3.958C39.575,18.8,39.133,18.357,38.586,18.357z M26.882,3.701
			C26.74,3.173,26.198,2.86,25.67,3.002c-0.527,0.142-0.841,0.684-0.699,1.212l0.443,1.653c-0.843-0.227-1.467-0.996-1.467-1.909
			c0-1.092,0.888-1.979,1.979-1.979c1.092,0,1.979,0.888,1.979,1.979c0,0.545-0.222,1.039-0.58,1.397L26.882,3.701z M11.67,3.958
			c0-1.091,0.888-1.979,1.979-1.979c1.091,0,1.979,0.888,1.979,1.979c0,0.914-0.623,1.683-1.466,1.909l0.442-1.652
			c0.142-0.528-0.171-1.071-0.699-1.212c-0.528-0.142-1.07,0.171-1.212,0.699L12.25,5.355C11.892,4.997,11.67,4.503,11.67,3.958z
			 M34.632,33.816c-0.185,2.469-2.015,4.329-4.258,4.329H9.201c-2.242,0-4.072-1.861-4.258-4.329l-0.711-9.522h31.111L34.632,33.816
			z M37.596,22.314H1.979v-1.979h7.539c0.002,0,0.004,0,0.006,0c0.004,0,0.008,0,0.011,0h20.507c0.004,0,0.007,0,0.011,0
			c0.002,0,0.005,0,0.007,0h7.537V22.314z M9.894,36.166c0.546,0,0.989-0.442,0.989-0.989v-7.915c0-0.546-0.443-0.989-0.989-0.989
			c-0.547,0-0.989,0.443-0.989,0.989v7.915C8.904,35.724,9.347,36.166,9.894,36.166z M24.733,36.166c0.547,0,0.99-0.442,0.99-0.989
			v-7.915c0-0.546-0.443-0.989-0.99-0.989c-0.546,0-0.989,0.443-0.989,0.989v7.915C23.744,35.724,24.188,36.166,24.733,36.166z
			 M29.713,28.746c0.546,0,0.989-0.442,0.989-0.989v-0.495c0-0.546-0.443-0.989-0.989-0.989c-0.547,0-0.99,0.443-0.99,0.989v0.495
			C28.724,28.304,29.166,28.746,29.713,28.746z M29.713,36.166c0.546,0,0.989-0.442,0.989-0.989V31.22
			c0-0.547-0.443-0.989-0.989-0.989c-0.547,0-0.99,0.442-0.99,0.989v3.957C28.724,35.724,29.166,36.166,29.713,36.166z
			 M19.787,36.166c0.547,0,0.989-0.442,0.989-0.989v-0.61c0-0.547-0.442-0.99-0.989-0.99c-0.546,0-0.989,0.443-0.989,0.99v0.61
			C18.798,35.724,19.241,36.166,19.787,36.166z M14.818,28.837c0.546,0,0.989-0.443,0.989-0.989v-0.586
			c0-0.546-0.443-0.989-0.989-0.989c-0.547,0-0.989,0.443-0.989,0.989v0.586C13.829,28.394,14.271,28.837,14.818,28.837z
			 M19.787,32.209c0.547,0,0.989-0.443,0.989-0.989v-3.958c0-0.546-0.442-0.989-0.989-0.989c-0.546,0-0.989,0.442-0.989,0.989v3.958
			C18.798,31.766,19.241,32.209,19.787,32.209z M14.818,36.166c0.546,0,0.989-0.442,0.989-0.989V31.22
			c0-0.547-0.443-0.989-0.989-0.989c-0.547,0-0.989,0.442-0.989,0.989v3.957C13.829,35.724,14.271,36.166,14.818,36.166z"/>
	</g>
</g>
</svg>
