<?xml version="1.0" encoding="utf-8"?>
<!-- Generator: Adobe Illustrator 16.0.0, SVG Export Plug-In . SVG Version: 6.00 Build 0)  -->
<!DOCTYPE svg PUBLIC "-//W3C//DTD SVG 1.1//EN" "http://www.w3.org/Graphics/SVG/1.1/DTD/svg11.dtd">
<svg version="1.1" id="Layer_1" xmlns="http://www.w3.org/2000/svg" xmlns:xlink="http://www.w3.org/1999/xlink" x="0px" y="0px"
	 width="118.063px" height="98.557px" viewBox="0 0 118.063 98.557" enable-background="new 0 0 118.063 98.557"
	 xml:space="preserve">
<path opacity="0.15" fill-rule="evenodd" clip-rule="evenodd" fill="#3498CB" d="M60.422,7.879c23.92,0,43.311,19.439,43.311,43.419
	c0,23.98-19.391,43.42-43.311,43.42c-23.919,0-43.31-19.439-43.31-43.42C17.112,27.318,36.502,7.879,60.422,7.879z"/>
<path fill="#3498CB" d="M110.685,0h-9.839c-3.26,0-6.031,2.129-7.004,5.072c-4.346,0.657-5.672,3.406-6.322,5.84l-2.354,8.798H2.46
	c-0.765,0-1.486,0.356-1.952,0.964c-0.465,0.608-0.622,1.398-0.424,2.138l2.636,9.856c0.288,1.077,1.262,1.827,2.375,1.827h2.068
	l6.103,22.814c0.006,0.021,0.014,0.041,0.02,0.063c0.011,0.036,0.021,0.073,0.034,0.109c0.014,0.041,0.03,0.08,0.046,0.118
	c0.012,0.028,0.022,0.058,0.035,0.085c0.062,0.14,0.136,0.27,0.221,0.393c0.004,0.006,0.009,0.012,0.014,0.018
	c0.039,0.055,0.079,0.107,0.122,0.158c0.012,0.015,0.024,0.027,0.036,0.041c0.037,0.042,0.074,0.082,0.113,0.121
	c0.017,0.018,0.034,0.033,0.051,0.049c0.036,0.035,0.073,0.067,0.111,0.1c0.02,0.017,0.041,0.033,0.062,0.051
	c0.038,0.029,0.077,0.057,0.117,0.084c0.022,0.016,0.043,0.031,0.066,0.046c0.059,0.037,0.118,0.073,0.18,0.104
	c0.026,0.015,0.054,0.026,0.081,0.039c0.04,0.02,0.079,0.039,0.12,0.056c0.029,0.013,0.059,0.023,0.088,0.034
	c0.043,0.016,0.086,0.031,0.129,0.045c0.026,0.008,0.053,0.016,0.08,0.023c0.055,0.016,0.11,0.028,0.167,0.039
	c0.017,0.004,0.034,0.008,0.05,0.011c0.082,0.016,0.165,0.026,0.249,0.032l57.911,4.69l-1.384,5.173H19.597
	c-1.358,0-2.46,1.104-2.46,2.464s1.101,2.464,2.46,2.464h6.809l-1.37,5.121c-4.5,0.905-7.899,4.893-7.899,9.662
	c0,5.436,4.414,9.856,9.838,9.856c0.008,0,0.016-0.001,0.024-0.001h12.274c1.359,0,2.46-1.103,2.46-2.463
	c0-1.361-1.101-2.465-2.46-2.465h-3.783c0.84-1.45,1.324-3.133,1.324-4.928c0-4.359-2.842-8.064-6.766-9.36l1.451-5.423H61.97
	l1.45,5.423c-3.924,1.297-6.765,5.001-6.765,9.36c0,5.436,4.414,9.856,9.838,9.856c0.008,0,0.016-0.001,0.023-0.001H91.09
	c1.358,0,2.46-1.103,2.46-2.463c0-1.361-1.102-2.465-2.46-2.465H75.009c0.84-1.451,1.323-3.133,1.323-4.928
	c0-4.77-3.4-8.758-7.9-9.662l-1.369-5.121h6.802c0.003,0,0.006,0.001,0.009,0.001c0.079,0,0.158-0.005,0.236-0.013
	c0.018-0.002,0.036-0.004,0.054-0.007c0.057-0.007,0.112-0.015,0.167-0.025c0.027-0.005,0.056-0.011,0.082-0.017
	c0.044-0.011,0.088-0.021,0.132-0.035c0.031-0.008,0.063-0.017,0.093-0.027c0.039-0.012,0.077-0.027,0.115-0.041
	c0.031-0.013,0.063-0.023,0.094-0.037c0.062-0.025,0.122-0.056,0.182-0.087c0.03-0.017,0.061-0.035,0.091-0.054
	c0.033-0.02,0.066-0.039,0.099-0.059c0.028-0.02,0.056-0.039,0.083-0.059c0.033-0.023,0.066-0.049,0.099-0.074
	c0.024-0.02,0.048-0.039,0.072-0.059c0.034-0.029,0.067-0.061,0.101-0.093c0.02-0.019,0.039-0.036,0.058-0.056
	c0.039-0.039,0.075-0.081,0.112-0.123c0.011-0.014,0.023-0.026,0.035-0.04c0.047-0.057,0.091-0.116,0.133-0.178
	c0.009-0.015,0.018-0.03,0.027-0.044c0.029-0.047,0.059-0.094,0.085-0.142c0.018-0.03,0.032-0.062,0.048-0.093
	c0.017-0.033,0.033-0.066,0.049-0.102c0.017-0.037,0.031-0.076,0.047-0.115c0.011-0.028,0.021-0.058,0.032-0.088
	c0.015-0.042,0.027-0.084,0.04-0.128c0.003-0.011,0.008-0.022,0.011-0.033l2.626-9.817c0.002-0.008,0.004-0.016,0.006-0.023
	l7.425-27.757h2.066c1.113,0,2.088-0.749,2.376-1.826l2.637-9.855c0.198-0.74,0.041-1.53-0.425-2.138
	c-0.465-0.607-1.187-0.964-1.951-0.964h-0.749l2.012-7.523c0.289-1.08,0.485-1.812,1.691-2.139c1.068,2.767,3.75,4.735,6.884,4.735
	h9.839c4.069,0,7.379-3.316,7.379-7.392C118.063,3.316,114.753,0,110.685,0z M31.895,88.701c0,2.714-2.2,4.922-4.907,4.928h-0.012
	c-0.002,0-0.004,0-0.005,0c-2.709-0.003-4.914-2.211-4.914-4.928c0-2.715,2.205-4.924,4.915-4.927c0.002,0,0.003,0,0.005,0
	c0.001,0,0.004,0,0.006,0C29.691,83.778,31.895,85.986,31.895,88.701z M71.413,88.701c0,2.714-2.2,4.922-4.908,4.928h-0.012
	c-0.002,0-0.004,0-0.006,0c-2.71-0.003-4.913-2.211-4.913-4.928c0-2.715,2.202-4.923,4.911-4.927c0.002,0,0.004,0,0.006,0
	s0.004,0,0.006,0C69.208,83.776,71.413,85.986,71.413,88.701z M79.893,39.422H52.266c-1.358,0-2.46,1.104-2.46,2.464
	c0,1.361,1.102,2.464,2.46,2.464h26.31l-1.318,4.928H64.388c-1.358,0-2.46,1.103-2.46,2.463c0,1.361,1.102,2.465,2.46,2.465h11.552
	l-1.277,4.771L17.57,54.355l-5.313-19.86h68.955L79.893,39.422z M86.483,29.566h-79.5l-1.318-4.928h81.38
	c0.003,0,0.006,0.001,0.009,0.001c0.005,0,0.01-0.001,0.015-0.001h0.732L86.483,29.566z M110.685,9.855h-9.839
	c-1.356,0-2.459-1.105-2.459-2.464c0-1.358,1.103-2.464,2.459-2.464h9.839c1.356,0,2.46,1.105,2.46,2.464
	C113.145,8.75,112.041,9.855,110.685,9.855z"/>
</svg>
