<?xml version="1.0" encoding="utf-8"?>
<!-- Generator: Adobe Illustrator 16.0.0, SVG Export Plug-In . SVG Version: 6.00 Build 0)  -->
<!DOCTYPE svg PUBLIC "-//W3C//DTD SVG 1.1//EN" "http://www.w3.org/Graphics/SVG/1.1/DTD/svg11.dtd">
<svg version="1.1" id="Layer_1" xmlns="http://www.w3.org/2000/svg" xmlns:xlink="http://www.w3.org/1999/xlink" x="0px" y="0px"
	 width="47.366px" height="39.541px" viewBox="0 0 47.366 39.541" enable-background="new 0 0 47.366 39.541" xml:space="preserve">
<g>
	<g>
		<path fill="#3498CB" d="M44.406,0h-3.947c-1.308,0-2.42,0.854-2.811,2.035c-1.743,0.264-2.275,1.366-2.536,2.343l-0.944,3.53
			H0.987c-0.307,0-0.597,0.143-0.783,0.387c-0.187,0.243-0.25,0.561-0.17,0.857l1.058,3.954c0.115,0.432,0.506,0.732,0.953,0.732
			h0.829l2.448,9.153C5.324,23,5.328,23.008,5.33,23.017c0.005,0.015,0.009,0.029,0.015,0.044c0.005,0.017,0.012,0.032,0.018,0.048
			c0.005,0.012,0.009,0.022,0.014,0.033c0.025,0.057,0.056,0.109,0.089,0.158c0.002,0.002,0.004,0.004,0.006,0.007
			c0.016,0.022,0.032,0.043,0.049,0.063c0.005,0.006,0.01,0.012,0.015,0.017c0.015,0.017,0.029,0.032,0.045,0.048
			c0.007,0.008,0.014,0.014,0.021,0.02c0.015,0.015,0.029,0.027,0.045,0.041c0.008,0.006,0.017,0.014,0.024,0.02
			c0.016,0.012,0.031,0.023,0.047,0.033c0.009,0.008,0.018,0.014,0.026,0.02c0.023,0.015,0.048,0.029,0.072,0.041
			c0.011,0.006,0.021,0.012,0.032,0.017c0.017,0.007,0.032,0.015,0.048,0.022c0.013,0.004,0.024,0.009,0.036,0.014
			c0.017,0.006,0.034,0.012,0.052,0.018c0.011,0.004,0.021,0.006,0.032,0.01c0.021,0.006,0.044,0.012,0.066,0.016
			c0.007,0.002,0.014,0.003,0.021,0.004c0.032,0.006,0.065,0.011,0.1,0.014l23.233,1.881l-0.555,2.076H7.862
			c-0.545,0-0.987,0.441-0.987,0.988c0,0.545,0.442,0.988,0.987,0.988h2.731l-0.55,2.055c-1.805,0.363-3.169,1.963-3.169,3.877
			c0,2.18,1.771,3.953,3.947,3.953h4.935c0.545,0,0.986-0.442,0.986-0.988s-0.441-0.988-0.986-0.988h-1.518
			c0.336-0.582,0.53-1.258,0.53-1.977c0-1.75-1.14-3.236-2.714-3.756l0.582-2.176h12.225l0.582,2.176
			c-1.574,0.52-2.715,2.006-2.715,3.756c0,2.18,1.771,3.953,3.947,3.953h9.868c0.545,0,0.986-0.442,0.986-0.988
			s-0.441-0.988-0.986-0.988h-6.452c0.338-0.582,0.531-1.258,0.531-1.977c0-1.914-1.364-3.514-3.169-3.877l-0.55-2.055h2.732
			c0.031,0,0.063-0.002,0.095-0.005c0.007-0.001,0.015-0.002,0.021-0.003c0.022-0.002,0.045-0.006,0.067-0.01
			c0.011-0.002,0.021-0.005,0.032-0.008c0.019-0.004,0.035-0.008,0.054-0.014c0.012-0.002,0.024-0.006,0.036-0.01
			c0.017-0.006,0.031-0.012,0.047-0.018c0.013-0.004,0.025-0.01,0.037-0.014c0.025-0.012,0.05-0.023,0.073-0.035
			c0.012-0.008,0.024-0.016,0.036-0.021c0.014-0.008,0.027-0.016,0.04-0.024c0.012-0.007,0.022-0.015,0.033-0.023
			c0.014-0.009,0.026-0.019,0.039-0.029c0.011-0.008,0.02-0.016,0.029-0.024c0.014-0.012,0.027-0.023,0.041-0.037
			c0.008-0.007,0.016-0.014,0.022-0.021c0.016-0.016,0.03-0.033,0.045-0.05c0.005-0.005,0.01-0.011,0.015-0.017
			c0.019-0.021,0.036-0.046,0.053-0.07c0.004-0.006,0.008-0.012,0.011-0.018c0.013-0.02,0.024-0.037,0.034-0.057
			c0.008-0.013,0.014-0.025,0.02-0.037c0.007-0.014,0.014-0.027,0.02-0.041c0.007-0.016,0.013-0.031,0.019-0.047
			c0.005-0.012,0.009-0.023,0.013-0.035c0.006-0.017,0.012-0.033,0.017-0.051c0.001-0.005,0.003-0.01,0.004-0.014l1.054-3.939
			c0.001-0.002,0.002-0.006,0.003-0.008l2.979-11.137h0.829c0.446,0,0.838-0.3,0.953-0.732l1.058-3.954
			c0.08-0.297,0.017-0.614-0.17-0.858c-0.187-0.244-0.477-0.387-0.783-0.387h-0.301l0.808-3.018
			c0.116-0.433,0.194-0.727,0.679-0.858c0.429,1.11,1.505,1.899,2.762,1.899h3.947c1.632,0,2.96-1.33,2.96-2.965
			C47.366,1.331,46.038,0,44.406,0z M12.796,35.587c0,1.088-0.883,1.974-1.969,1.977h-0.005c-0.001,0-0.001,0-0.002,0
			c-1.087-0.002-1.972-0.888-1.972-1.977c0-1.09,0.885-1.977,1.973-1.978c0,0,0.001,0,0.002,0c0,0,0.001,0,0.002,0
			C11.912,33.611,12.796,34.498,12.796,35.587z M28.65,35.587c0,1.088-0.883,1.974-1.969,1.977h-0.005c-0.001,0-0.002,0-0.002,0
			c-1.088-0.002-1.972-0.888-1.972-1.977c0-1.09,0.884-1.977,1.971-1.978c0.001,0,0.001,0,0.002,0h0.003
			C27.767,33.611,28.65,34.498,28.65,35.587z M32.053,15.816H20.969c-0.545,0-0.987,0.442-0.987,0.988s0.442,0.989,0.987,0.989
			h10.556l-0.529,1.977h-5.163c-0.545,0-0.987,0.442-0.987,0.989c0,0.545,0.442,0.988,0.987,0.988h4.635l-0.513,1.914L7.049,21.807
			l-2.131-7.968h27.664L32.053,15.816z M34.697,11.862H2.802L2.273,9.885h32.648c0.002,0,0.003,0,0.004,0c0.002,0,0.004,0,0.006,0
			h0.294L34.697,11.862z M44.406,3.954h-3.947c-0.544,0-0.986-0.443-0.986-0.988s0.442-0.988,0.986-0.988h3.947
			c0.544,0,0.987,0.443,0.987,0.988C45.393,3.511,44.95,3.954,44.406,3.954z M17.12,17.793h0.593c0.545,0,0.986-0.443,0.986-0.989
			s-0.441-0.988-0.986-0.988H17.12c-0.545,0-0.986,0.442-0.986,0.988C16.134,17.351,16.575,17.793,17.12,17.793z"/>
	</g>
</g>
</svg>
