<?xml version="1.0" encoding="utf-8"?>
<!-- Generator: Adobe Illustrator 16.0.0, SVG Export Plug-In . SVG Version: 6.00 Build 0)  -->
<!DOCTYPE svg PUBLIC "-//W3C//DTD SVG 1.1//EN" "http://www.w3.org/Graphics/SVG/1.1/DTD/svg11.dtd">
<svg version="1.1" id="Layer_1" xmlns="http://www.w3.org/2000/svg" xmlns:xlink="http://www.w3.org/1999/xlink" x="0px" y="0px"
	 width="26px" height="26px" viewBox="0 0 26 26" enable-background="new 0 0 26 26" xml:space="preserve">
<path fill-rule="evenodd" clip-rule="evenodd" fill="#3498CB" d="M13,0c7.18,0,13,5.82,13,13c0,7.179-5.82,13-13,13S0,20.179,0,13
	C0,5.82,5.82,0,13,0z"/>
<path fill="#FFFFFF" d="M18.215,9.496c-0.43-0.438-1.129-0.446-1.564-0.015l-4.857,4.798L9.35,11.865
	c-0.438-0.431-1.137-0.425-1.566,0.014c-0.428,0.438-0.421,1.142,0.014,1.573l3.219,3.18c0.216,0.211,0.496,0.317,0.776,0.317
	s0.56-0.106,0.776-0.317l5.632-5.564C18.637,10.638,18.643,9.934,18.215,9.496z"/>
</svg>
