<?xml version="1.0" encoding="utf-8"?>
<!-- Generator: Adobe Illustrator 16.0.0, SVG Export Plug-In . SVG Version: 6.00 Build 0)  -->
<!DOCTYPE svg PUBLIC "-//W3C//DTD SVG 1.1//EN" "http://www.w3.org/Graphics/SVG/1.1/DTD/svg11.dtd">
<svg version="1.1" id="delivery_icon_1_" xmlns="http://www.w3.org/2000/svg" xmlns:xlink="http://www.w3.org/1999/xlink" x="0px"
	 y="0px" width="77px" height="64px" viewBox="0 0 77 64" enable-background="new 0 0 77 64" xml:space="preserve">
<g id="Ellipse_5_copy" opacity="0.149">
	<g>
		<ellipse fill-rule="evenodd" clip-rule="evenodd" fill="#3498CB" cx="32" cy="32" rx="31.993" ry="32.006"/>
	</g>
</g>
<g id="Shape_1">
	<g>
		<path fill-rule="evenodd" clip-rule="evenodd" fill="#3498CB" d="M69.876,27.473v-1.512c0-2.305-1.874-4.181-4.177-4.181H51.773
			v-6.967c0-0.77-0.623-1.394-1.393-1.394h-4.178V9.24c0-0.77-0.623-1.394-1.393-1.394H25.895l-2.378-2.379
			c-0.543-0.544-1.425-0.544-1.969,0l-7.947,7.952h-2.208c-0.769,0-1.392,0.624-1.392,1.394v39.015c0,0.77,0.623,1.394,1.392,1.394
			h5.71c0.209,1.029,0.647,1.977,1.256,2.787h-2.789c-0.769,0-1.392,0.624-1.392,1.394s0.623,1.394,1.393,1.394h8.354
			c0.003,0,0.007-0.001,0.01-0.001c3.358-0.005,6.166-2.4,6.812-5.573h19.635h5.711c0.209,1.029,0.646,1.977,1.256,2.787h-2.789
			c-0.769,0-1.393,0.624-1.393,1.394s0.624,1.394,1.393,1.394h8.355c0.003,0,0.006-0.001,0.01-0.001
			c3.357-0.005,6.166-2.399,6.813-5.572h5.709c0.77,0,1.393-0.624,1.393-1.394V41.288v-5.574
			C76.838,31.579,73.821,28.139,69.876,27.473z M43.418,10.634v2.786H31.464l-2.784-2.786H43.418z M22.532,8.424l1.8,1.801
			c0.001,0.001,0.001,0.001,0.002,0.002l3.191,3.193h-9.986L22.532,8.424z M23.924,58.009c-2.304,0-4.178-1.875-4.178-4.181
			c0-2.305,1.874-4.18,4.178-4.18c2.303,0,4.177,1.875,4.177,4.18C28.101,56.134,26.228,58.009,23.924,58.009z M48.988,23.175
			v23.687h-9.47c-0.769,0-1.393,0.624-1.393,1.394s0.624,1.394,1.393,1.394h9.47v2.787H30.746c-0.647-3.177-3.46-5.574-6.822-5.574
			c-3.362,0-6.175,2.397-6.822,5.574h-4.317V30.142h5.569c0.769,0,1.393-0.624,1.393-1.395c0-0.769-0.624-1.393-1.393-1.393h-5.569
			v-2.787h16.709c0.769,0,1.393-0.624,1.393-1.394s-0.624-1.394-1.393-1.394H12.785v-5.573h1.392c0,0,0.001,0,0.002,0h34.81V23.175z
			 M56.092,52.436h-4.318v-2.787h5.574C56.738,50.459,56.301,51.406,56.092,52.436z M67.091,53.828c0,0.002,0,0.004,0,0.005
			c-0.003,2.303-1.876,4.176-4.177,4.176c-2.304,0-4.178-1.875-4.178-4.181c0-2.301,1.868-4.174,4.166-4.18h0.012
			c0.001,0,0.002,0,0.003,0c2.3,0.002,4.171,1.874,4.174,4.176C67.091,53.825,67.091,53.827,67.091,53.828z M74.053,52.436h-4.316
			c-0.647-3.177-3.461-5.574-6.822-5.574c-0.004,0-0.008,0-0.012,0H51.773V24.567h13.926c0.768,0,1.392,0.626,1.392,1.394v1.394
			h-9.747c-0.769,0-1.393,0.624-1.393,1.394v12.54c0,0.77,0.623,1.394,1.393,1.394h16.709V52.436z M61.521,30.142v9.753h-2.785
			v-9.753H61.521z M74.053,39.895h-9.746v-9.753h4.177c3.071,0,5.569,2.499,5.569,5.572V39.895z M34.071,49.648h0.869
			c0.769,0,1.393-0.624,1.393-1.394s-0.624-1.394-1.393-1.394h-0.869c-0.769,0-1.393,0.624-1.393,1.394S33.303,49.648,34.071,49.648
			z M34.071,24.567h0.869c0.769,0,1.393-0.623,1.393-1.393c0-0.771-0.624-1.395-1.393-1.395h-0.869
			c-0.769,0-1.393,0.624-1.393,1.395C32.679,23.943,33.303,24.567,34.071,24.567z"/>
	</g>
</g>
</svg>
