<?xml version="1.0" encoding="utf-8"?>
<!-- Generator: Adobe Illustrator 16.0.0, SVG Export Plug-In . SVG Version: 6.00 Build 0)  -->
<!DOCTYPE svg PUBLIC "-//W3C//DTD SVG 1.1//EN" "http://www.w3.org/Graphics/SVG/1.1/DTD/svg11.dtd">
<svg version="1.1" id="Layer_1" xmlns="http://www.w3.org/2000/svg" xmlns:xlink="http://www.w3.org/1999/xlink" x="0px" y="0px"
	 width="166.981px" height="40.448px" viewBox="0 0 166.981 40.448" enable-background="new 0 0 166.981 40.448"
	 xml:space="preserve">
<g>
	<g>
		<path fill="#3498CB" d="M39.344,14.837c-1.389-5.183-4.695-9.504-9.31-12.168C27.011,0.923,23.566,0,20.075,0
			c-7.172,0-13.839,3.832-17.4,10c-2.664,4.615-3.367,10.011-1.979,15.194c1.389,5.183,4.695,9.504,9.31,12.169
			c0.642,0.37,1.303,0.704,1.98,0.999h-0.311c-0.46,0-0.834,0.374-0.834,0.835s0.374,0.834,0.834,0.834h16.69
			c0.461,0,0.835-0.373,0.835-0.834s-0.374-0.835-0.835-0.835h-0.372c3.884-1.686,7.204-4.575,9.372-8.331
			C40.029,25.416,40.732,20.02,39.344,14.837z M35.92,29.196c-3.264,5.654-9.377,9.166-15.955,9.166
			c-3.199,0-6.354-0.846-9.125-2.445C2.073,30.854-0.941,19.603,4.12,10.835c3.264-5.653,9.377-9.166,15.955-9.166
			c3.199,0,6.354,0.846,9.125,2.445c4.229,2.442,7.259,6.403,8.531,11.155C39.005,20.021,38.361,24.967,35.92,29.196z
			 M16.132,34.527c-5.167-1.385-9.237-5.456-10.622-10.623c-0.119-0.445-0.576-0.71-1.022-0.591c-0.445,0.12-0.709,0.577-0.59,1.022
			c1.539,5.742,6.061,10.265,11.803,11.803c0.072,0.02,0.145,0.029,0.216,0.029c0.369,0,0.706-0.246,0.806-0.619
			C16.842,35.104,16.578,34.646,16.132,34.527z M24.34,3.893c-0.445-0.119-0.902,0.145-1.021,0.59
			c-0.12,0.445,0.145,0.903,0.59,1.022c5.167,1.385,9.237,5.455,10.621,10.623c0.101,0.373,0.438,0.619,0.807,0.619
			c0.07,0,0.145-0.009,0.217-0.028c0.444-0.12,0.709-0.577,0.59-1.022C34.604,9.954,30.082,5.431,24.34,3.893z M28.458,15.278
			h-4.454c0.358-1.693,0.596-3.49-0.368-4.818c-0.646-0.891-1.747-1.416-3.272-1.56c-0.053-0.005-0.107-0.007-0.161-0.007
			c-0.875,0-1.626,0.683-1.708,1.554c-0.284,3.001-1.096,4.683-1.929,5.433c-0.101-0.347-0.421-0.601-0.801-0.601h-5.303
			c-0.461,0-0.834,0.374-0.834,0.835v10.853c0,0.462,0.374,0.835,0.834,0.835h5.303c0.39,0,0.716-0.268,0.808-0.629
			c0.626,0.406,1.41,0.629,2.314,0.629h8.818c0.894,0,1.619-0.689,1.727-1.639l0.964-8.571c0.076-0.674-0.091-1.278-0.471-1.704
			C29.677,15.609,29.221,15.278,28.458,15.278z M14.93,26.131h-3.634v-5.845h1.817c0.461,0,0.834-0.374,0.834-0.834
			c0-0.461-0.374-0.834-0.834-0.834h-1.817v-1.669h3.634V26.131z M27.773,25.976c-0.012,0.097-0.055,0.149-0.064,0.155
			c0,0-0.001,0-0.004,0h-8.818c-1.991,0-2.288-1.459-2.288-2.33v-5.995c0.544-0.224,1.218-0.671,1.843-1.561
			c0.905-1.288,1.481-3.186,1.714-5.641c0.002-0.023,0.023-0.043,0.05-0.042c1.026,0.098,1.726,0.393,2.079,0.879
			c0.666,0.917,0.271,2.676-0.075,4.228l-0.06,0.264c-0.055,0.248,0.006,0.506,0.164,0.704s0.398,0.313,0.651,0.313h5.492
			c0.108,0,0.194,0.02,0.222,0.051c0.045,0.05,0.081,0.197,0.058,0.405L27.773,25.976z"/>
	</g>
</g>
</svg>

    <svg version="1.1" id="Layer_1" xmlns="http://www.w3.org/2000/svg" xmlns:xlink="http://www.w3.org/1999/xlink" x="0px" y="0px"
         width="166.981px" height="40.448px" viewBox="0 0 166.981 40.448" enable-background="new 0 0 166.981 40.448"
         xml:space="preserve">
<g>
	<g>
		<path fill="#3498CB" d="M77.587,16.565c-0.53,0-0.994-0.351-1.129-0.854c-0.37-1.383-0.922-2.715-1.639-3.958
			c-0.263-0.454-0.184-1.033,0.191-1.409c1.136-1.135,1.136-2.983,0-4.119l-0.737-0.738c-1.137-1.136-2.984-1.136-4.121,0
			c-0.374,0.375-0.953,0.453-1.407,0.191c-1.243-0.717-2.574-1.269-3.958-1.639c-0.502-0.134-0.853-0.599-0.853-1.129
			C63.935,1.307,62.628,0,61.022,0h-1.044c-1.606,0-2.913,1.307-2.913,2.913c0,0.53-0.351,0.995-0.853,1.129
			c-1.383,0.371-2.715,0.922-3.958,1.639c-0.455,0.262-1.033,0.183-1.408-0.192c-1.136-1.136-2.984-1.136-4.12,0l-0.738,0.738
			c-1.135,1.135-1.135,2.983,0.001,4.12c0.375,0.375,0.453,0.954,0.191,1.408c-0.717,1.243-1.268,2.575-1.639,3.958
			c-0.134,0.503-0.599,0.854-1.128,0.854c-1.606,0-2.913,1.307-2.913,2.913v1.044c0,1.606,1.307,2.913,2.913,2.913
			c0.53,0,0.995,0.351,1.129,0.854c0.371,1.383,0.922,2.715,1.639,3.957c0.262,0.455,0.183,1.033-0.192,1.409
			c-1.136,1.135-1.136,2.983,0,4.119l0.738,0.738c1.136,1.135,2.983,1.136,4.12-0.001c0.375-0.375,0.954-0.453,1.408-0.191
			c1.243,0.717,2.575,1.269,3.958,1.64c0.502,0.134,0.854,0.599,0.854,1.129c0,1.605,1.307,2.912,2.913,2.912h1.044
			c1.606,0,2.913-1.307,2.913-2.912c0-0.53,0.351-0.995,0.854-1.129c1.383-0.371,2.715-0.923,3.958-1.64
			c0.453-0.262,1.033-0.183,1.408,0.192c1.135,1.136,2.983,1.135,4.119,0l0.738-0.738c1.135-1.136,1.135-2.984-0.001-4.12
			c-0.375-0.375-0.453-0.954-0.191-1.408c0.717-1.242,1.269-2.574,1.64-3.957c0.135-0.503,0.598-0.854,1.129-0.854
			c1.605,0,2.912-1.307,2.912-2.913v-1.044C80.5,17.872,79.193,16.565,77.587,16.565z M77.587,21.695
			c-1.315,0-2.471,0.881-2.809,2.143c-0.331,1.236-0.825,2.428-1.466,3.539c-0.654,1.134-0.462,2.576,0.469,3.507
			c0.457,0.457,0.457,1.202,0,1.659l-0.738,0.738c-0.457,0.458-1.202,0.458-1.66,0c-0.93-0.93-2.372-1.123-3.506-0.469
			c-1.112,0.642-2.303,1.135-3.539,1.466c-1.262,0.338-2.143,1.493-2.143,2.809c0,0.647-0.526,1.174-1.173,1.174h-1.044
			c-0.646,0-1.173-0.526-1.173-1.174c0-1.315-0.881-2.471-2.142-2.809c-1.237-0.331-2.427-0.824-3.539-1.466
			c-0.45-0.259-0.948-0.386-1.443-0.386c-0.754,0-1.502,0.293-2.064,0.854c-0.458,0.458-1.202,0.458-1.66,0l-0.738-0.738
			c-0.458-0.457-0.458-1.202,0-1.66c0.93-0.93,1.123-2.372,0.468-3.506c-0.641-1.111-1.134-2.303-1.466-3.539
			c-0.338-1.262-1.493-2.143-2.809-2.143c-0.647,0-1.174-0.526-1.174-1.173v-1.044c0-0.647,0.527-1.173,1.174-1.173
			c1.315,0,2.471-0.881,2.809-2.143c0.332-1.236,0.825-2.427,1.466-3.539c0.654-1.134,0.462-2.576-0.469-3.507
			c-0.458-0.457-0.458-1.202,0-1.659l0.738-0.738c0.458-0.458,1.202-0.458,1.661,0c0.93,0.93,2.372,1.123,3.506,0.468
			c1.111-0.641,2.302-1.134,3.539-1.465c1.261-0.338,2.142-1.493,2.142-2.809c0-0.647,0.526-1.174,1.173-1.174h1.044
			c0.647,0,1.173,0.526,1.173,1.174c0,1.315,0.881,2.471,2.143,2.809c1.236,0.331,2.427,0.824,3.539,1.465
			c1.134,0.655,2.576,0.462,3.506-0.468c0.458-0.458,1.203-0.458,1.66,0l0.738,0.738c0.457,0.457,0.457,1.202-0.001,1.66
			c-0.93,0.93-1.122,2.372-0.468,3.506c0.642,1.112,1.135,2.302,1.466,3.539c0.338,1.261,1.493,2.143,2.809,2.143
			c0.647,0,1.173,0.526,1.173,1.173v1.044h0.001C78.761,21.169,78.234,21.695,77.587,21.695z M60.5,8.695
			c-6.233,0-11.305,5.071-11.305,11.305S54.267,31.305,60.5,31.305c6.232,0,11.305-5.071,11.305-11.305S66.732,8.695,60.5,8.695z
			 M60.5,29.565c-5.274,0-9.565-4.291-9.565-9.565s4.291-9.565,9.565-9.565c5.273,0,9.564,4.291,9.564,9.565
			S65.773,29.565,60.5,29.565z M60.5,12.174c-0.48,0-0.87,0.39-0.87,0.87s0.389,0.87,0.87,0.87c2.49,0,4.704,1.49,5.642,3.797
			c0.138,0.337,0.462,0.542,0.806,0.542c0.109,0,0.22-0.021,0.327-0.064c0.444-0.181,0.659-0.688,0.479-1.133
			C66.548,14.09,63.701,12.174,60.5,12.174z"/>
	</g>
</g>
    </svg>

        <svg version="1.1" id="Layer_1" xmlns="http://www.w3.org/2000/svg" xmlns:xlink="http://www.w3.org/1999/xlink" x="0px" y="0px"
             width="166.981px" height="40.448px" viewBox="0 0 166.981 40.448" enable-background="new 0 0 166.981 40.448"
             xml:space="preserve">
<path fill="#3498CB" d="M120.939,14.763v-0.995c0-1.519-1.234-2.754-2.752-2.754h-9.172V6.425c0-0.507-0.41-0.918-0.917-0.918
	h-2.752V2.754c0-0.507-0.411-0.918-0.917-0.918H91.97l-1.566-1.567c-0.358-0.358-0.938-0.358-1.297,0l-5.234,5.238h-1.455
	c-0.507,0-0.917,0.411-0.917,0.918v25.698c0,0.507,0.41,0.918,0.917,0.918h3.761c0.139,0.678,0.427,1.302,0.828,1.836h-1.837
	c-0.507,0-0.917,0.411-0.917,0.918c0,0.506,0.41,0.918,0.917,0.918h5.503c0.002,0,0.004-0.001,0.007-0.001
	c2.211-0.003,4.061-1.581,4.486-3.671h12.934h3.762c0.138,0.678,0.426,1.302,0.827,1.836h-1.837c-0.507,0-0.917,0.411-0.917,0.918
	s0.41,0.918,0.917,0.918h5.503c0.002,0,0.004-0.001,0.007-0.001c2.212-0.003,4.062-1.581,4.486-3.671h3.761
	c0.507,0,0.918-0.41,0.918-0.918v-8.26v-3.672C125.525,17.469,123.538,15.201,120.939,14.763z M103.513,3.672v1.835h-7.875
	l-1.834-1.835H103.513z M89.755,2.216l1.186,1.187l0.001,0.001l2.103,2.104h-6.578L89.755,2.216z M90.672,34.877
	c-1.518,0-2.752-1.235-2.752-2.754c0-1.518,1.234-2.753,2.752-2.753c1.517,0,2.751,1.235,2.751,2.753
	C93.423,33.642,92.188,34.877,90.672,34.877z M107.181,11.932v15.603h-6.237c-0.507,0-0.917,0.411-0.917,0.918
	s0.41,0.918,0.917,0.918h6.237v1.835H95.165c-0.426-2.092-2.278-3.671-4.493-3.671s-4.067,1.579-4.494,3.671h-2.844V16.521h3.669
	c0.507,0,0.917-0.41,0.917-0.918c0-0.507-0.41-0.917-0.917-0.917h-3.669V12.85H94.34c0.507,0,0.918-0.411,0.918-0.918
	s-0.411-0.918-0.918-0.918H83.334V7.343h0.917h0.001h22.929V11.932L107.181,11.932z M111.86,31.205h-2.845V29.37h3.672
	C112.286,29.904,111.998,30.527,111.86,31.205z M119.104,32.127c-0.001,1.516-1.234,2.75-2.751,2.75
	c-1.518,0-2.752-1.235-2.752-2.754c0-1.516,1.23-2.749,2.745-2.753h0.007c0.001,0,0.002,0,0.002,0
	c1.516,0.001,2.748,1.233,2.749,2.75c0,0.001,0,0.002,0,0.003S119.104,32.125,119.104,32.127z M123.69,31.205h-2.844
	c-0.426-2.092-2.278-3.671-4.493-3.671c-0.002,0-0.005,0-0.007,0h-7.331V12.85h9.172c0.506,0,0.918,0.412,0.918,0.918v0.918h-6.421
	c-0.506,0-0.917,0.41-0.917,0.918v8.26c0,0.507,0.41,0.918,0.917,0.918h11.006V31.205z M115.437,16.521v6.425h-1.835v-6.425H115.437
	z M123.69,22.945h-6.42v-6.425h2.752c2.022,0,3.668,1.647,3.668,3.671V22.945L123.69,22.945z"/>
        </svg>

            <svg version="1.1" id="Layer_1" xmlns="http://www.w3.org/2000/svg" xmlns:xlink="http://www.w3.org/1999/xlink" x="0px" y="0px"
                 width="166.981px" height="40.448px" viewBox="0 0 166.981 40.448" enable-background="new 0 0 166.981 40.448"
                 xml:space="preserve">
<g>
	<g>
		<path fill="#3498CB" d="M153.761,14.872c0.396-0.395,0.396-1.035,0-1.43c-0.395-0.395-1.035-0.395-1.431,0l-12.143,12.135
			c-0.395,0.395-0.395,1.035,0,1.431c0.198,0.197,0.457,0.296,0.716,0.296s0.518-0.099,0.716-0.296L153.761,14.872z M143.939,10.112
			c-2.232,0-4.048,1.814-4.048,4.044c0,2.23,1.815,4.045,4.048,4.045c2.231,0,4.047-1.814,4.047-4.045
			C147.986,11.926,146.171,10.112,143.939,10.112z M143.939,16.179c-1.116,0-2.024-0.907-2.024-2.022
			c0-1.115,0.908-2.022,2.024-2.022c1.115,0,2.023,0.907,2.023,2.022C145.963,15.272,145.055,16.179,143.939,16.179z M150.01,22.246
			c-2.231,0-4.047,1.814-4.047,4.045s1.815,4.045,4.047,4.045c2.232,0,4.048-1.814,4.048-4.045S152.242,22.246,150.01,22.246z
			 M150.01,28.313c-1.115,0-2.023-0.907-2.023-2.022s0.908-2.022,2.023-2.022c1.116,0,2.024,0.907,2.024,2.022
			S151.126,28.313,150.01,28.313z M166.24,20.224c0.639-1.043,0.879-2.285,0.663-3.512c-0.216-1.226-0.867-2.311-1.825-3.073
			c0.243-1.199,0.045-2.448-0.578-3.527s-1.606-1.875-2.768-2.264c-0.182-1.21-0.796-2.316-1.75-3.116
			c-0.941-0.79-2.145-1.213-3.375-1.182c-0.585-1.075-1.541-1.904-2.712-2.33c-0.558-0.203-1.14-0.307-1.729-0.307
			c-0.633,0-1.259,0.12-1.846,0.35c-0.917-0.81-2.1-1.263-3.346-1.263s-2.429,0.453-3.346,1.263
			c-0.587-0.229-1.213-0.349-1.846-0.349c-0.59,0-1.172,0.103-1.729,0.306c-1.171,0.426-2.127,1.256-2.712,2.33
			c-1.23-0.03-2.434,0.392-3.375,1.182c-0.954,0.8-1.568,1.906-1.75,3.116c-1.161,0.389-2.145,1.186-2.768,2.265
			c-0.623,1.078-0.821,2.327-0.578,3.526c-0.958,0.763-1.609,1.848-1.825,3.073c-0.217,1.226,0.024,2.468,0.663,3.512
			c-0.639,1.043-0.879,2.286-0.663,3.512c0.216,1.226,0.867,2.311,1.825,3.073c-0.243,1.199-0.045,2.448,0.578,3.526
			s1.606,1.875,2.768,2.265c0.182,1.21,0.796,2.316,1.75,3.116c0.941,0.789,2.146,1.211,3.375,1.182
			c0.585,1.075,1.541,1.904,2.712,2.33c0.558,0.203,1.14,0.307,1.729,0.307c0.633,0,1.259-0.12,1.846-0.35
			c0.918,0.811,2.1,1.263,3.346,1.263s2.429-0.452,3.346-1.263c0.587,0.23,1.213,0.35,1.846,0.35c0.59,0,1.172-0.104,1.729-0.307
			c1.171-0.426,2.127-1.255,2.712-2.33c1.229,0.029,2.434-0.393,3.375-1.182c0.954-0.8,1.568-1.906,1.751-3.116
			c1.16-0.39,2.144-1.187,2.767-2.265s0.821-2.328,0.578-3.527c0.958-0.762,1.609-1.847,1.826-3.072
			C167.119,22.51,166.879,21.268,166.24,20.224z M164.225,20.883c0.594,0.692,0.844,1.604,0.686,2.502s-0.705,1.669-1.501,2.117
			c-0.435,0.244-0.626,0.77-0.45,1.236c0.321,0.854,0.244,1.797-0.212,2.587c-0.456,0.789-1.234,1.327-2.135,1.476
			c-0.492,0.082-0.853,0.51-0.847,1.009c0.01,0.913-0.386,1.772-1.084,2.358c-0.546,0.457-1.237,0.709-1.949,0.709
			c-0.188,0-0.377-0.018-0.563-0.052c-0.49-0.093-0.975,0.188-1.141,0.657c-0.303,0.861-0.969,1.534-1.825,1.846
			c-0.852,0.311-1.81,0.218-2.586-0.24c-0.43-0.254-0.979-0.157-1.297,0.229c-0.579,0.705-1.435,1.109-2.347,1.109
			s-1.767-0.404-2.346-1.109c-0.199-0.241-0.488-0.369-0.783-0.369c-0.176,0-0.354,0.045-0.515,0.141
			c-0.775,0.458-1.733,0.55-2.585,0.24c-0.857-0.312-1.522-0.984-1.826-1.846c-0.165-0.47-0.649-0.75-1.14-0.657
			c-0.186,0.034-0.375,0.052-0.563,0.052c-0.711,0-1.402-0.252-1.948-0.709c-0.698-0.586-1.094-1.445-1.084-2.357
			c0.005-0.499-0.354-0.928-0.847-1.009c-0.901-0.149-1.68-0.688-2.136-1.477c-0.455-0.789-0.533-1.731-0.212-2.587
			c0.176-0.467-0.016-0.991-0.45-1.236c-0.796-0.448-1.343-1.22-1.501-2.117s0.092-1.81,0.686-2.502
			c0.325-0.379,0.325-0.938,0-1.316c-0.594-0.693-0.844-1.605-0.686-2.503s0.705-1.669,1.501-2.117
			c0.435-0.245,0.626-0.77,0.45-1.236c-0.321-0.854-0.244-1.797,0.212-2.586c0.456-0.79,1.234-1.328,2.136-1.477
			c0.492-0.082,0.852-0.51,0.847-1.009c-0.01-0.913,0.385-1.772,1.084-2.357c0.546-0.458,1.237-0.71,1.948-0.71
			c0.188,0,0.378,0.018,0.563,0.052c0.49,0.092,0.975-0.188,1.14-0.659c0.304-0.86,0.969-1.533,1.826-1.845
			c0.852-0.31,1.81-0.218,2.586,0.241c0.43,0.253,0.979,0.156,1.297-0.229c0.578-0.705,1.434-1.109,2.346-1.109
			s1.768,0.405,2.347,1.109c0.316,0.386,0.867,0.483,1.297,0.229c0.776-0.459,1.734-0.551,2.586-0.241
			c0.856,0.312,1.522,0.984,1.825,1.846c0.166,0.47,0.651,0.749,1.141,0.658c0.186-0.035,0.375-0.052,0.563-0.052
			c0.711,0,1.403,0.252,1.949,0.71c0.698,0.585,1.094,1.445,1.084,2.358c-0.005,0.499,0.354,0.927,0.847,1.008
			c0.9,0.148,1.679,0.687,2.135,1.477c0.456,0.789,0.533,1.731,0.212,2.585c-0.176,0.467,0.016,0.992,0.45,1.237
			c0.796,0.448,1.344,1.22,1.502,2.117c0.158,0.898-0.092,1.811-0.687,2.503C163.9,19.945,163.9,20.504,164.225,20.883z
			 M151.065,7.73c0.531,0.173,1.103-0.116,1.276-0.646c0.174-0.531-0.116-1.103-0.647-1.276c-2.528-0.827-5.241-0.975-7.844-0.427
			c-6.71,1.411-11.657,7.175-12.031,14.018c-0.03,0.558,0.397,1.034,0.955,1.065c0.019,0.001,0.038,0.001,0.057,0.001
			c0.533,0,0.979-0.417,1.009-0.956c0.324-5.931,4.611-10.926,10.427-12.149C146.522,6.886,148.873,7.014,151.065,7.73z
			 M161.175,19.984c-0.56-0.03-1.035,0.397-1.065,0.955c-0.324,5.931-4.611,10.926-10.427,12.148
			c-2.256,0.475-4.606,0.347-6.799-0.37c-0.53-0.174-1.103,0.116-1.276,0.646s0.116,1.102,0.647,1.275
			c1.528,0.5,3.124,0.752,4.723,0.752c1.046,0,2.093-0.107,3.122-0.324c6.709-1.411,11.656-7.175,12.03-14.018
			C162.16,20.492,161.732,20.015,161.175,19.984z M134.064,22.742c-0.107-0.549-0.638-0.906-1.187-0.799
			c-0.549,0.107-0.906,0.639-0.8,1.186c0.055,0.279,0.119,0.564,0.191,0.848c0.116,0.458,0.528,0.762,0.979,0.762
			c0.083,0,0.167-0.01,0.251-0.031c0.541-0.138,0.868-0.688,0.73-1.229C134.167,23.231,134.111,22.983,134.064,22.742z
			 M159.885,17.706c0.094,0.482,0.518,0.817,0.992,0.817c0.064,0,0.129-0.006,0.194-0.019c0.549-0.107,0.906-0.638,0.8-1.186
			c-0.055-0.279-0.119-0.564-0.191-0.847c-0.138-0.541-0.688-0.869-1.23-0.73c-0.541,0.138-0.868,0.688-0.73,1.229
			C159.781,17.216,159.838,17.464,159.885,17.706z"/>
	</g>
</g>
</svg>
