<?xml version="1.0" encoding="utf-8"?>
<!-- Generator: Adobe Illustrator 16.0.0, SVG Export Plug-In . SVG Version: 6.00 Build 0)  -->
<!DOCTYPE svg PUBLIC "-//W3C//DTD SVG 1.1//EN" "http://www.w3.org/Graphics/SVG/1.1/DTD/svg11.dtd">
<svg version="1.1" id="Layer_1" xmlns="http://www.w3.org/2000/svg" xmlns:xlink="http://www.w3.org/1999/xlink" x="0px" y="0px"
	 width="96px" height="82px" viewBox="0 0 96 82" enable-background="new 0 0 96 82" xml:space="preserve">
<path opacity="0.15" fill-rule="evenodd" clip-rule="evenodd" fill="#3498CB" d="M55,0c22.644,0,41,18.356,41,41
	c0,22.644-18.356,41-41,41S14,63.644,14,41C14,18.356,32.356,0,55,0z"/>
<g>
	<g>
		<path fill="#3498CB" d="M33.277,10.011c-1.933,0-3.503,1.574-3.503,3.506c0,1.938,1.567,3.505,3.503,3.505h1.751
			c0.967,0,1.751-0.785,1.751-1.752v-1.753C36.78,11.589,35.204,10.011,33.277,10.011z M50.79,10.011
			c-1.926,0-3.502,1.578-3.502,3.506v1.753c0,0.968,0.785,1.752,1.752,1.752h1.751c1.937,0,3.503-1.568,3.503-3.505
			C54.294,11.585,52.724,10.011,50.79,10.011z M82.317,69.607h-6.306V34.549h1.051c0.968,0,1.751-0.785,1.751-1.753V22.28
			c0-0.968-0.783-1.753-1.751-1.753H58.614c1.668-1.862,2.686-4.319,2.686-7.011C61.3,7.718,56.585,3,50.791,3
			c-3.651,0-6.873,1.875-8.757,4.712C40.15,4.875,36.929,3,33.277,3c-5.794,0-10.508,4.718-10.508,10.516
			c0,2.691,1.017,5.149,2.685,7.011H7.005c-0.967,0-1.751,0.785-1.751,1.753v10.516c0,0.968,0.784,1.753,1.751,1.753h1.051v35.058
			H1.751C0.784,69.607,0,70.39,0,71.359s0.784,1.752,1.751,1.752h80.566c0.967,0,1.751-0.783,1.751-1.752
			S83.284,69.607,82.317,69.607z M31.526,69.607H18.565V53.832c0-0.969-0.784-1.754-1.751-1.754s-1.751,0.785-1.751,1.754v15.775
			H11.56V34.549h19.966V69.607z M31.526,31.044H8.757v-7.011h22.769V31.044z M26.272,13.517c0-3.866,3.143-7.011,7.005-7.011
			s7.005,3.145,7.005,7.011v7.011h-7.005C29.415,20.528,26.272,17.382,26.272,13.517z M49.04,69.607H35.029V34.549H49.04V69.607z
			 M49.04,31.044H35.029v-7.011H49.04V31.044z M43.786,20.528v-7.011c0-3.866,3.142-7.011,7.005-7.011
			c3.862,0,7.005,3.145,7.005,7.011s-3.143,7.011-7.005,7.011H43.786z M72.509,69.607H52.542V34.549h12.961v15.776
			c0,0.968,0.784,1.753,1.752,1.753c0.967,0,1.751-0.785,1.751-1.753V34.549h3.503V69.607z M75.312,31.044h-22.77v-7.011h22.77
			V31.044z M16.813,49.8c0.967,0,1.751-0.785,1.751-1.753v-1.052c0-0.969-0.784-1.754-1.751-1.754s-1.751,0.785-1.751,1.754v1.052
			C15.063,49.015,15.846,49.8,16.813,49.8z M67.254,54.356c-0.967,0-1.751,0.785-1.751,1.753v1.051c0,0.969,0.784,1.754,1.751,1.754
			c0.968,0,1.752-0.785,1.752-1.754v-1.051C69.006,55.141,68.222,54.356,67.254,54.356z"/>
	</g>
</g>
</svg>
