<?xml version="1.0" encoding="utf-8"?>
<!-- Generator: Adobe Illustrator 16.0.0, SVG Export Plug-In . SVG Version: 6.00 Build 0)  -->
<!DOCTYPE svg PUBLIC "-//W3C//DTD SVG 1.1//EN" "http://www.w3.org/Graphics/SVG/1.1/DTD/svg11.dtd">
<svg version="1.1" id="Layer_1" xmlns="http://www.w3.org/2000/svg" xmlns:xlink="http://www.w3.org/1999/xlink" x="0px" y="0px"
	 width="164.75px" height="32px" viewBox="0 0 164.75 32" enable-background="new 0 0 164.75 32" xml:space="preserve">
<g>
	<path fill-rule="evenodd" clip-rule="evenodd" fill="#3498CB" d="M16,0c8.836,0,16,7.163,16,16c0,8.836-7.164,16-16,16
		S0,24.836,0,16C0,7.163,7.163,0,16,0z"/>
	<g>
		<g>
			<path fill="#FFFFFF" d="M11.211,14.471c0,0.286,0.232,0.518,0.518,0.518c0.141,0,0.278-0.022,0.406-0.062
				c-0.12-0.317-0.212-0.652-0.276-1c0,0-0.097,0.02-0.129,0.026C11.444,14.007,11.211,14.185,11.211,14.471z M17.469,17.877
				c-0.032-0.197-0.215-0.313-0.406-0.258c0,0-0.57,0.162-1.063,0.162c-0.492,0-1.061-0.162-1.061-0.162
				c-0.192-0.055-0.375,0.061-0.407,0.258c0,0-0.05,0.307-0.191,0.684c-0.094,0.25-0.147,0.338-0.147,0.338
				c-0.103,0.17-0.025,0.309,0.174,0.309h3.263c0.2,0,0.278-0.139,0.175-0.309c-0.001,0-0.046-0.074-0.138-0.316
				C17.521,18.199,17.469,17.877,17.469,17.877z M16,17.057c0.975,0,1.869-0.434,2.52-1.222c0.646-0.783,1.003-1.874,1.003-3.073
				V8.933c0-0.256-0.208-0.464-0.464-0.464h-6.118c-0.255,0-0.463,0.208-0.463,0.464v3.829c0,1.199,0.356,2.29,1.002,3.073
				C14.13,16.623,15.025,17.057,16,17.057z M11.753,12.762v-0.518h-0.878c-0.657,0-1.19-0.534-1.19-1.19
				c0-0.657,0.534-1.19,1.19-1.19c0.348,0,0.661,0.149,0.878,0.387V9.009c-0.27-0.116-0.566-0.181-0.878-0.181
				c-1.228,0-2.226,0.999-2.226,2.226s0.999,2.226,2.226,2.226h0.899C11.76,13.109,11.753,12.938,11.753,12.762z M21.125,8.828
				c-0.312,0-0.608,0.064-0.878,0.181v1.242c0.218-0.237,0.53-0.387,0.878-0.387c0.656,0,1.191,0.534,1.191,1.19
				c0,0.656-0.535,1.19-1.191,1.19h-0.878v0.518c0,0.176-0.007,0.347-0.021,0.518h0.898c1.228,0,2.227-0.999,2.227-2.226
				S22.353,8.828,21.125,8.828z M20.271,19.934h-8.542c-0.286,0-0.518,0.23-0.518,0.518v2.563c0,0.285,0.232,0.518,0.518,0.518
				h8.542c0.285,0,0.518-0.232,0.518-0.518v-2.563C20.789,20.164,20.557,19.934,20.271,19.934z M20.271,13.954
				c-0.036-0.007-0.13-0.026-0.13-0.026c-0.064,0.348-0.156,0.683-0.276,1c0.128,0.04,0.264,0.062,0.406,0.062
				c0.285,0,0.518-0.231,0.518-0.518S20.574,14.01,20.271,13.954z"/>
		</g>
	</g>
</g>
<g>
	<path fill-rule="evenodd" clip-rule="evenodd" fill="#3498CB" d="M49.001,0c8.836,0,16,7.163,16,16c0,8.836-7.164,16-16,16
		s-16-7.164-16-16C33.001,7.163,40.165,0,49.001,0z"/>
	<path fill="#FFFFFF" d="M59.542,16.208c0-0.004,0-0.008,0-0.012c-0.006-0.265-0.219-0.475-0.485-0.475h-0.128l-1.968-3.806
		c-0.083-0.161-0.249-0.261-0.432-0.261l-3.36,0l0.129-1.016c0.036-0.406-0.089-0.79-0.354-1.08
		c-0.265-0.29-0.633-0.449-1.038-0.449H41.478c-0.262,0-0.484,0.203-0.51,0.465l-0.104,0.837h5.941c0.386,0,0.69,0.313,0.681,0.699
		c-0.011,0.386-0.331,0.698-0.717,0.698h-1.982c0.001,0.001,0.001,0.002,0.001,0.003h-5.819c-0.272,0-0.5,0.222-0.507,0.494
		c-0.007,0.273,0.208,0.494,0.481,0.494h7.704c0.357,0.055,0.625,0.364,0.615,0.739c-0.011,0.411-0.352,0.745-0.762,0.748h-5.312
		c-0.276,0-0.505,0.224-0.513,0.499c-0.007,0.276,0.21,0.499,0.486,0.499h5.249c0.363,0.051,0.635,0.363,0.625,0.741
		c-0.011,0.413-0.354,0.748-0.768,0.748h-6.021v0.001h-0.507c-0.275,0-0.505,0.223-0.512,0.499c-0.007,0.275,0.21,0.499,0.486,0.499
		h0.437l-0.171,1.788c-0.037,0.406,0.089,0.79,0.354,1.08c0.264,0.29,0.633,0.449,1.038,0.449h0.377
		c0.18,1.027,1.067,1.803,2.154,1.803c1.086,0,2.015-0.775,2.248-1.803h4.701c0.38,0,0.739-0.145,1.021-0.383
		c0.258,0.248,0.601,0.383,0.974,0.383h0.077c0.18,1.027,1.068,1.803,2.154,1.803c1.087,0,2.016-0.775,2.248-1.803h0.311
		c0.809,0,1.525-0.657,1.599-1.465l0.304-3.369c0-0.005,0-0.009,0-0.014c0.001-0.007,0.002-0.014,0.002-0.021
		C59.542,16.216,59.542,16.212,59.542,16.208z M43.929,21.894c-0.688,0-1.232-0.56-1.215-1.248c0.019-0.688,0.593-1.248,1.28-1.248
		c0.688,0,1.233,0.56,1.215,1.248C45.191,21.334,44.618,21.894,43.929,21.894z M55.106,21.894c-0.688,0-1.232-0.56-1.215-1.248
		c0.019-0.688,0.593-1.248,1.28-1.248s1.232,0.56,1.215,1.248C56.368,21.334,55.793,21.894,55.106,21.894z M58.243,19.56
		c-0.026,0.288-0.291,0.531-0.578,0.531h-0.336c-0.222-0.971-1.085-1.691-2.132-1.691c-1.046,0-1.946,0.72-2.22,1.691h-0.103
		c-0.127,0-0.24-0.047-0.318-0.134c-0.08-0.087-0.117-0.205-0.105-0.333l0.629-6.972l1.445,0l-0.229,2.538
		c-0.036,0.406,0.089,0.789,0.354,1.08c0.265,0.289,0.633,0.449,1.039,0.449h2.811L58.243,19.56z"/>
</g>
<g>
	<path fill-rule="evenodd" clip-rule="evenodd" fill="#3498CB" d="M82.002,0c8.836,0,16,7.163,16,16c0,8.836-7.164,16-16,16
		s-16-7.164-16-16C66.003,7.163,73.166,0,82.002,0z"/>
	<path fill="#FFFFFF" d="M91.446,14.944c-0.03-0.268-0.341-0.469-0.611-0.469c-0.871,0-1.644-0.511-1.967-1.303
		c-0.331-0.811-0.118-1.756,0.531-2.352c0.204-0.187,0.229-0.5,0.058-0.718c-0.446-0.566-0.953-1.078-1.505-1.521
		c-0.216-0.174-0.535-0.149-0.722,0.059c-0.566,0.628-1.584,0.861-2.37,0.532c-0.818-0.344-1.334-1.174-1.283-2.064
		c0.017-0.28-0.188-0.523-0.467-0.556c-0.71-0.082-1.426-0.084-2.138-0.005c-0.275,0.03-0.479,0.268-0.471,0.544
		c0.031,0.882-0.491,1.697-1.301,2.03c-0.777,0.318-1.787,0.086-2.353-0.537c-0.187-0.205-0.499-0.23-0.717-0.06
		c-0.57,0.447-1.087,0.959-1.537,1.521c-0.176,0.218-0.149,0.535,0.057,0.723c0.661,0.6,0.875,1.553,0.531,2.373
		c-0.328,0.782-1.139,1.286-2.067,1.286c-0.302-0.01-0.516,0.193-0.549,0.467c-0.083,0.714-0.084,1.443-0.004,2.163
		c0.03,0.269,0.351,0.468,0.623,0.468c0.828-0.021,1.622,0.492,1.956,1.304c0.332,0.811,0.118,1.756-0.532,2.353
		c-0.203,0.187-0.229,0.499-0.058,0.717c0.441,0.563,0.948,1.075,1.503,1.522c0.218,0.175,0.535,0.15,0.723-0.058
		c0.569-0.629,1.586-0.862,2.369-0.533c0.82,0.344,1.336,1.173,1.286,2.064c-0.017,0.28,0.188,0.524,0.466,0.556
		c0.363,0.042,0.729,0.063,1.095,0.063c0.348,0,0.695-0.019,1.043-0.058c0.275-0.03,0.479-0.269,0.47-0.545
		c-0.032-0.881,0.492-1.697,1.3-2.028c0.782-0.319,1.788-0.086,2.354,0.536c0.188,0.204,0.498,0.229,0.717,0.06
		c0.568-0.446,1.085-0.958,1.538-1.521c0.175-0.218,0.15-0.535-0.057-0.723c-0.661-0.6-0.875-1.554-0.532-2.373
		c0.323-0.771,1.104-1.29,1.944-1.29l0.118,0.003c0.272,0.022,0.523-0.188,0.556-0.467C91.526,16.392,91.527,15.665,91.446,14.944z
		 M82.004,21.484c-3.025,0-5.478-2.455-5.478-5.484s2.453-5.484,5.478-5.484s5.478,2.455,5.478,5.484
		c0,1.028-0.283,1.99-0.774,2.812l-2.399-2.401c0.174-0.41,0.265-0.854,0.265-1.313c0-0.898-0.349-1.742-0.983-2.377
		c-0.634-0.635-1.478-0.984-2.375-0.984c-0.299,0-0.597,0.04-0.885,0.118c-0.126,0.035-0.229,0.139-0.263,0.266
		c-0.034,0.129,0.004,0.262,0.105,0.363c0,0,1.185,1.195,1.581,1.591c0.042,0.042,0.042,0.141,0.036,0.176l-0.004,0.026
		c-0.04,0.436-0.117,0.959-0.18,1.16c-0.009,0.009-0.017,0.016-0.025,0.025c-0.009,0.009-0.018,0.018-0.026,0.027
		c-0.204,0.065-0.734,0.144-1.177,0.183v-0.002l-0.02,0.005c-0.003,0-0.01,0.001-0.019,0.001c-0.047,0-0.118-0.014-0.182-0.077
		c-0.412-0.413-1.55-1.544-1.55-1.544c-0.102-0.102-0.207-0.123-0.276-0.123c-0.163,0-0.308,0.117-0.354,0.286
		c-0.313,1.16,0.019,2.409,0.867,3.257c0.634,0.635,1.478,0.985,2.375,0.985c0.458,0,0.902-0.092,1.311-0.266l2.425,2.428
		C84.101,21.167,83.09,21.484,82.004,21.484z"/>
</g>
<g>
	<path fill-rule="evenodd" clip-rule="evenodd" fill="#3498CB" d="M115.004,0c8.836,0,16,7.163,16,16c0,8.836-7.164,16-16,16
		s-16-7.164-16-16C99.004,7.163,106.167,0,115.004,0z"/>
	<g>
		<g>
			<path fill="#FFFFFF" d="M114.6,11.849c0-1.906-1.552-3.458-3.459-3.458c-1.906,0-3.458,1.552-3.458,3.458
				s1.552,3.458,3.458,3.458C113.048,15.307,114.6,13.755,114.6,11.849z M109.401,11.849c0-0.96,0.781-1.74,1.74-1.74
				c0.96,0,1.74,0.78,1.74,1.74c0,0.959-0.78,1.74-1.74,1.74C110.182,13.589,109.401,12.808,109.401,11.849z M118.872,16.694
				c-1.906,0-3.458,1.551-3.458,3.457c0,1.907,1.552,3.458,3.458,3.458c1.907,0,3.458-1.551,3.458-3.458
				C122.33,18.245,120.779,16.694,118.872,16.694z M118.872,21.891c-0.96,0-1.74-0.78-1.74-1.74c0-0.959,0.78-1.739,1.74-1.739
				s1.74,0.78,1.74,1.739C120.612,21.111,119.831,21.891,118.872,21.891z M118.978,8.834c-0.448-0.249-1.016-0.088-1.267,0.36
				l-7.059,12.675c-0.25,0.449-0.089,1.016,0.36,1.267c0.144,0.08,0.299,0.117,0.452,0.117c0.326,0,0.644-0.172,0.814-0.478
				l7.059-12.675C119.588,9.652,119.427,9.085,118.978,8.834z"/>
		</g>
	</g>
</g>
<g>
	<path fill-rule="evenodd" clip-rule="evenodd" fill="#F89523" d="M148.005,0c8.836,0,16,7.163,16,16c0,8.836-7.164,16-16,16
		s-16-7.164-16-16C132.006,7.163,139.169,0,148.005,0z"/>
	<path fill="#FFFFFF" d="M158.546,16.208c0-0.004,0-0.008,0-0.012c-0.006-0.265-0.219-0.475-0.485-0.475h-0.128l-1.968-3.806
		c-0.083-0.161-0.249-0.261-0.432-0.261l-3.36,0l0.129-1.016c0.036-0.406-0.089-0.79-0.354-1.08
		c-0.265-0.29-0.633-0.449-1.038-0.449h-10.429c-0.262,0-0.484,0.203-0.51,0.465l-0.104,0.837h5.941c0.386,0,0.69,0.313,0.681,0.699
		c-0.011,0.386-0.331,0.698-0.717,0.698h-1.982c0.001,0.001,0.001,0.002,0.001,0.003h-5.819c-0.272,0-0.5,0.222-0.507,0.494
		c-0.007,0.273,0.208,0.494,0.481,0.494h7.704c0.357,0.055,0.625,0.364,0.615,0.739c-0.011,0.411-0.352,0.745-0.762,0.748h-5.312
		c-0.276,0-0.505,0.224-0.513,0.499c-0.007,0.276,0.21,0.499,0.486,0.499h5.249c0.363,0.051,0.635,0.363,0.625,0.741
		c-0.011,0.413-0.354,0.748-0.768,0.748h-6.021v0.001h-0.507c-0.275,0-0.505,0.223-0.512,0.499c-0.007,0.275,0.21,0.499,0.486,0.499
		h0.437l-0.171,1.788c-0.037,0.406,0.089,0.79,0.354,1.08c0.264,0.29,0.633,0.449,1.038,0.449h0.377
		c0.18,1.027,1.067,1.803,2.154,1.803c1.086,0,2.015-0.775,2.248-1.803h4.701c0.38,0,0.739-0.145,1.021-0.383
		c0.258,0.248,0.601,0.383,0.974,0.383h0.077c0.18,1.027,1.068,1.803,2.154,1.803c1.087,0,2.016-0.775,2.248-1.803h0.311
		c0.809,0,1.525-0.657,1.599-1.465l0.304-3.369c0-0.005,0-0.009,0-0.014c0.001-0.007,0.002-0.014,0.002-0.021
		C158.546,16.216,158.546,16.212,158.546,16.208z M142.933,21.894c-0.688,0-1.232-0.56-1.215-1.248
		c0.019-0.688,0.593-1.248,1.28-1.248c0.688,0,1.233,0.56,1.215,1.248C144.195,21.334,143.622,21.894,142.933,21.894z
		 M154.11,21.894c-0.688,0-1.232-0.56-1.215-1.248c0.019-0.688,0.593-1.248,1.28-1.248s1.232,0.56,1.215,1.248
		C155.372,21.334,154.797,21.894,154.11,21.894z M157.247,19.56c-0.026,0.288-0.291,0.531-0.578,0.531h-0.336
		c-0.222-0.971-1.085-1.691-2.132-1.691c-1.046,0-1.946,0.72-2.22,1.691h-0.103c-0.127,0-0.24-0.047-0.318-0.134
		c-0.08-0.087-0.117-0.205-0.105-0.333l0.629-6.972l1.445,0l-0.229,2.538c-0.036,0.406,0.089,0.789,0.354,1.08
		c0.265,0.289,0.633,0.449,1.039,0.449h2.811L157.247,19.56z"/>
</g>
</svg>
