<?xml version="1.0" encoding="utf-8"?>
<!-- Generator: Adobe Illustrator 16.0.0, SVG Export Plug-In . SVG Version: 6.00 Build 0)  -->
<!DOCTYPE svg PUBLIC "-//W3C//DTD SVG 1.1//EN" "http://www.w3.org/Graphics/SVG/1.1/DTD/svg11.dtd">
<svg version="1.1" id="Layer_1" xmlns="http://www.w3.org/2000/svg" xmlns:xlink="http://www.w3.org/1999/xlink" x="0px" y="0px"
	 width="90.896px" height="44.75px" viewBox="0 0 90.896 44.75" enable-background="new 0 0 90.896 44.75" xml:space="preserve">
<g>
	<path fill-rule="evenodd" clip-rule="evenodd" fill="#3498CB" d="M22.5,0C34.926,0,45,10.073,45,22.5S34.926,45,22.5,45
		C10.073,45,0,34.927,0,22.5S10.073,0,22.5,0z"/>
	<path fill="#FFFFFF" d="M31.124,21.149H23.85v-7.274c0-0.331-0.45-1.05-1.351-1.05c-0.899,0-1.35,0.719-1.35,1.05v7.274h-7.274
		c-0.331,0-1.05,0.45-1.05,1.351c0,0.899,0.719,1.35,1.05,1.35h7.274v7.275c0,0.331,0.45,1.05,1.35,1.05
		c0.9,0,1.351-0.719,1.351-1.05V23.85h7.274c0.332,0,1.051-0.45,1.051-1.35C32.175,21.6,31.456,21.149,31.124,21.149z"/>
</g>
<g>
	<path fill-rule="evenodd" clip-rule="evenodd" fill="#3498CB" d="M68.502,0c12.426,0,22.5,10.073,22.5,22.5S80.929,45,68.502,45
		c-12.427,0-22.5-10.073-22.5-22.5S56.076,0,68.502,0z"/>
	<g>
		<g>
			<path fill="#FFFFFF" d="M59.878,20.25h17.25c0.331,0,1.05-0.45,1.05-1.351c0-0.899-0.719-1.35-1.051-1.35H59.878
				c-0.332,0-1.05,0.45-1.05,1.35C58.828,19.8,59.546,20.25,59.878,20.25z M77.127,24.75H59.878c-0.332,0-1.05,0.449-1.05,1.35
				c0,0.899,0.718,1.351,1.05,1.351h17.25c0.331,0,1.05-0.45,1.05-1.351S77.459,24.75,77.127,24.75z"/>
		</g>
	</g>
</g>
</svg>
