<?xml version="1.0" encoding="utf-8"?>
<!-- Generator: Adobe Illustrator 16.0.0, SVG Export Plug-In . SVG Version: 6.00 Build 0)  -->
<!DOCTYPE svg PUBLIC "-//W3C//DTD SVG 1.1//EN" "http://www.w3.org/Graphics/SVG/1.1/DTD/svg11.dtd">
<svg version="1.1" id="Layer_1" xmlns="http://www.w3.org/2000/svg" xmlns:xlink="http://www.w3.org/1999/xlink" x="0px" y="0px"
	 width="258.003px" height="25.667px" viewBox="0 0 258.003 25.667" enable-background="new 0 0 258.003 25.667"
	 xml:space="preserve">
<g>
	<path fill="#FFFFFF" d="M12.5,0C19.403,0,25,5.596,25,12.5C25,19.403,19.403,25,12.5,25S0,19.403,0,12.5C0,5.596,5.597,0,12.5,0z"
		/>
	<g>
		<path fill="#3498CB" d="M12.5,19.128c0.813,0,1.516-0.479,1.843-1.166h-3.686C10.985,18.651,11.687,19.128,12.5,19.128z
			 M17.962,16.214V15.05l-0.873-0.875v-2.341c0-2.235-1.599-4.098-3.715-4.506V6.745c0-0.481-0.392-0.873-0.874-0.873
			c-0.481,0-0.874,0.392-0.874,0.873v0.583c-2.115,0.408-3.714,2.271-3.714,4.506v2.341L7.038,15.05v1.164H6.164v0.875h12.672
			v-0.875H17.962z"/>
	</g>
</g>
<g>
	<path fill="#212121" d="M68.251,15.505l-4.197-4.213c1.079-1.239,1.67-2.796,1.67-4.418c0-3.79-3.194-6.874-7.12-6.874
		s-7.12,3.083-7.12,6.874c0,3.79,3.194,6.874,7.12,6.874c1.474,0,2.878-0.43,4.079-1.245l4.229,4.247
		c0.177,0.179,0.415,0.274,0.669,0.274c0.241,0,0.47-0.089,0.644-0.25C68.594,16.431,68.606,15.863,68.251,15.505z M58.605,1.793
		c2.901,0,5.262,2.279,5.262,5.081c0,2.801-2.361,5.08-5.262,5.08c-2.902,0-5.263-2.279-5.263-5.08
		C53.342,4.072,55.703,1.793,58.605,1.793z"/>
</g>
<g>
	<path fill="#8F8F8F" d="M77.002,0.761c0-0.419-0.338-0.761-0.75-0.761H70.25c-0.413,0-0.75,0.342-0.75,0.761v6.086
		c0,0.418,0.337,0.761,0.75,0.761h6.003c0.413,0,0.75-0.343,0.75-0.761L77.002,0.761L77.002,0.761z"/>
	<path fill="#8F8F8F" d="M87.508,0.761c0-0.419-0.337-0.761-0.75-0.761h-6.003c-0.413,0-0.75,0.342-0.75,0.761v6.086
		c0,0.418,0.338,0.761,0.75,0.761h6.003c0.413,0,0.75-0.343,0.75-0.761V0.761z"/>
	<path fill="#8F8F8F" d="M77.002,11.157c0-0.418-0.338-0.761-0.75-0.761H70.25c-0.413,0-0.75,0.343-0.75,0.761v6.087
		c0,0.418,0.337,0.76,0.75,0.76h6.003c0.413,0,0.75-0.342,0.75-0.76L77.002,11.157L77.002,11.157z"/>
	<path fill="#8F8F8F" d="M87.508,11.157c0-0.418-0.337-0.761-0.75-0.761h-6.003c-0.413,0-0.75,0.343-0.75,0.761v6.087
		c0,0.418,0.338,0.76,0.75,0.76h6.003c0.413,0,0.75-0.342,0.75-0.76V11.157z"/>
</g>
<g>
	<path fill="#8F8F8F" d="M94.987,1.052c0,0.579,0.473,1.052,1.052,1.052h12.904c0.579,0,1.052-0.474,1.052-1.052
		c0-0.578-0.473-1.052-1.052-1.052H96.039C95.459,0,94.987,0.474,94.987,1.052z"/>
	<path fill="#8F8F8F" d="M96.039,9.997h12.904c0.579,0,1.052-0.474,1.052-1.053c0-0.578-0.474-1.052-1.052-1.052H96.039
		c-0.579,0-1.052,0.474-1.052,1.052C94.987,9.523,95.459,9.997,96.039,9.997z"/>
	<path fill="#8F8F8F" d="M96.039,17.89h12.904c0.579,0,1.052-0.475,1.052-1.053s-0.474-1.051-1.052-1.051H96.039
		c-0.579,0-1.052,0.473-1.052,1.051S95.459,17.89,96.039,17.89z"/>
	<path fill="#8F8F8F" d="M89.551,2.104h1.754c0.578,0,1.052-0.474,1.052-1.052C92.357,0.474,91.883,0,91.305,0h-1.754
		C88.973,0,88.5,0.474,88.5,1.052C88.5,1.63,88.973,2.104,89.551,2.104z"/>
	<path fill="#8F8F8F" d="M89.551,9.997h1.754c0.578,0,1.052-0.474,1.052-1.053c0-0.578-0.475-1.052-1.052-1.052h-1.754
		c-0.578,0-1.052,0.474-1.052,1.052C88.5,9.523,88.973,9.997,89.551,9.997z"/>
	<path fill="#8F8F8F" d="M89.551,17.89h1.754c0.578,0,1.052-0.475,1.052-1.053s-0.475-1.051-1.052-1.051h-1.754
		c-0.578,0-1.052,0.473-1.052,1.051S88.973,17.89,89.551,17.89z"/>
</g>
<g>
	<path fill="#AAAAAA" d="M115.698,4.413l3.434-3.52c0.199-0.205,0.199-0.535,0-0.74c-0.197-0.204-0.521-0.204-0.721,0l-3.434,3.521
		l-3.436-3.521c-0.199-0.204-0.521-0.204-0.721,0c-0.199,0.205-0.199,0.535,0,0.74l3.434,3.52l-3.645,3.736
		c-0.199,0.204-0.199,0.535,0,0.738c0.1,0.103,0.229,0.154,0.36,0.154c0.131,0,0.262-0.051,0.36-0.154l3.646-3.735l3.646,3.735
		c0.1,0.103,0.229,0.154,0.359,0.154s0.262-0.051,0.359-0.154c0.199-0.204,0.199-0.534,0-0.738L115.698,4.413z"/>
</g>
<g>
	<path fill="#3498CB" d="M128.312,11.349c-0.315,0-0.574,0.258-0.574,0.574v0.383c0,0.316,0.259,0.574,0.574,0.574
		s0.573-0.258,0.573-0.574v-0.383C128.885,11.607,128.627,11.349,128.312,11.349z"/>
	<path fill="#3498CB" d="M128.502,16c4.412,0,8-3.587,8-8s-3.588-8-8-8s-8,3.588-8,8C120.502,12.411,124.09,16,128.502,16z
		 M128.502,1.148c3.779,0,6.853,3.072,6.853,6.852s-3.071,6.852-6.853,6.852c-3.779,0-6.853-3.073-6.853-6.852
		C121.651,4.22,124.723,1.148,128.502,1.148z"/>
	<path fill="#3498CB" d="M126.015,6.564C126.024,6.564,126.024,6.564,126.015,6.564c0.315,0,0.573-0.239,0.573-0.555
		c0,0,0.011-0.459,0.24-0.909c0.285-0.574,0.793-0.861,1.541-0.861c0.697,0,1.215,0.191,1.502,0.564
		c0.237,0.306,0.307,0.728,0.189,1.187c-0.145,0.564-0.631,1.053-1.102,1.531c-0.574,0.593-1.176,1.196-1.176,2.009
		c0,0.316,0.258,0.574,0.573,0.574s0.574-0.258,0.574-0.574c0-0.344,0.411-0.765,0.853-1.206c0.545-0.555,1.166-1.187,1.387-2.048
		c0.211-0.794,0.067-1.588-0.393-2.172c-0.354-0.459-1.063-1.014-2.402-1.014c-1.502,0-2.22,0.804-2.563,1.493
		c-0.346,0.689-0.363,1.349-0.363,1.426C125.45,6.315,125.7,6.564,126.015,6.564z"/>
</g>
<g>
	<path fill="#AAAAAA" d="M137.512,5.194L142.28,0l4.77,5.194l-1.074,1.188l-3.693-4.022l-3.691,4.022L137.512,5.194z"/>
</g>
<g>
	<path fill="#212121" d="M151.504,4l-3-4h6L151.504,4z"/>
</g>
<g>
	<g>
		<path fill="#FE980E" d="M167.743,0c6.903,0,12.5,5.597,12.5,12.5s-5.597,12.5-12.5,12.5c-6.902,0-12.5-5.597-12.5-12.5
			S160.838,0,167.743,0z"/>
	</g>
	<g>
		<path fill="#FFFFFF" d="M168.562,12.377l3.899-3.999c0.228-0.232,0.228-0.608,0-0.84c-0.227-0.231-0.592-0.231-0.818,0l-3.9,3.999
			l-3.9-3.999c-0.227-0.231-0.592-0.231-0.817,0c-0.228,0.232-0.228,0.608,0,0.84l3.899,3.999l-4.141,4.246
			c-0.227,0.231-0.227,0.607,0,0.838c0.112,0.117,0.262,0.176,0.409,0.176s0.296-0.059,0.409-0.176l4.141-4.244l4.141,4.244
			c0.113,0.117,0.263,0.176,0.41,0.176s0.295-0.059,0.408-0.176c0.228-0.229,0.228-0.605,0-0.838L168.562,12.377z"/>
	</g>
</g>
<g>
	<path fill="#3498CB" d="M182.497,2.097h26.021c0.586,0,1.063-0.47,1.063-1.048c0-0.579-0.478-1.049-1.063-1.049h-26.021
		c-0.586,0-1.063,0.47-1.063,1.049C181.434,1.627,181.911,2.097,182.497,2.097z"/>
	<path fill="#3498CB" d="M182.497,9.96h26.021c0.586,0,1.063-0.47,1.063-1.048c0-0.579-0.478-1.049-1.063-1.049h-26.021
		c-0.586,0-1.063,0.47-1.063,1.049S181.911,9.96,182.497,9.96z"/>
	<path fill="#3498CB" d="M182.497,17.824h26.021c0.586,0,1.063-0.47,1.063-1.049c0-0.578-0.478-1.048-1.063-1.048h-26.021
		c-0.586,0-1.063,0.47-1.063,1.048C181.434,17.354,181.911,17.824,182.497,17.824z"/>
</g>
<g>
	<path fill="#FFFFFF" d="M38.497,0c6.903,0,12.5,5.596,12.5,12.5S45.4,25,38.497,25c-6.902,0-12.5-5.597-12.5-12.5
		S31.595,0,38.497,0z"/>
	<path fill="#3498CB" d="M44.228,15.992l-1.854-1.857c-0.369-0.368-0.98-0.356-1.361,0.025l-0.934,0.937
		c-0.059-0.033-0.121-0.066-0.186-0.104c-0.588-0.326-1.395-0.775-2.244-1.627c-0.851-0.854-1.298-1.664-1.626-2.256
		c-0.035-0.063-0.068-0.123-0.101-0.18l0.625-0.627l0.309-0.309c0.383-0.383,0.393-0.997,0.025-1.366l-1.853-1.858
		C34.66,6.4,34.049,6.412,33.666,6.795l-0.522,0.527l0.015,0.014c-0.175,0.225-0.321,0.483-0.43,0.761
		c-0.101,0.265-0.163,0.518-0.192,0.772c-0.244,2.034,0.683,3.892,3.197,6.413c3.476,3.486,6.278,3.224,6.399,3.212
		c0.264-0.031,0.516-0.096,0.771-0.195c0.275-0.107,0.533-0.254,0.756-0.43l0.012,0.012l0.529-0.521
		C44.583,16.974,44.595,16.362,44.228,15.992z"/>
</g>
<path fill-rule="evenodd" clip-rule="evenodd" fill="#AAAAAA" d="M216.175,12.008l-5.866-6.004L216.175,0l1.342,1.354l-4.543,4.65
	l4.543,4.65L216.175,12.008z"/>
<path fill-rule="evenodd" clip-rule="evenodd" fill="#AAAAAA" d="M219.644,12.008l5.866-6.004L219.644,0l-1.342,1.354l4.543,4.65
	l-4.543,4.65L219.644,12.008z"/>
<path fill-rule="evenodd" clip-rule="evenodd" fill="#3498CB" d="M232.177,12.008l-5.866-6.004L232.177,0l1.342,1.354l-4.543,4.65
	l4.543,4.65L232.177,12.008z"/>
<path fill-rule="evenodd" clip-rule="evenodd" fill="#3498CB" d="M235.646,12.008l5.866-6.004L235.646,0l-1.342,1.354l4.543,4.65
	l-4.543,4.65L235.646,12.008z"/>
<g>
	<g>
		<path fill="#AAAAAA" d="M258,0.563c0-0.009-0.002-0.019-0.004-0.027c-0.002-0.011-0.002-0.022-0.005-0.033
			c-0.002-0.011-0.005-0.021-0.007-0.031c-0.003-0.009-0.006-0.019-0.008-0.028c-0.004-0.01-0.007-0.02-0.011-0.029
			c-0.003-0.01-0.007-0.019-0.011-0.028s-0.008-0.018-0.012-0.027c-0.004-0.009-0.009-0.019-0.014-0.028
			c-0.005-0.009-0.01-0.017-0.016-0.025c-0.005-0.009-0.01-0.018-0.016-0.027s-0.014-0.018-0.02-0.027
			c-0.006-0.007-0.012-0.015-0.018-0.022c-0.013-0.016-0.026-0.031-0.041-0.045c0,0,0,0,0-0.001
			c-0.015-0.015-0.029-0.028-0.046-0.041c-0.007-0.006-0.015-0.011-0.022-0.017c-0.008-0.007-0.018-0.014-0.026-0.02
			s-0.019-0.012-0.027-0.017c-0.009-0.005-0.017-0.011-0.025-0.015c-0.009-0.005-0.019-0.01-0.028-0.014
			c-0.009-0.004-0.018-0.009-0.027-0.013c-0.009-0.003-0.019-0.007-0.027-0.01c-0.01-0.003-0.02-0.007-0.029-0.01l-0.029-0.007
			c-0.01-0.003-0.02-0.005-0.031-0.008c-0.01-0.002-0.021-0.003-0.033-0.005c-0.008-0.001-0.018-0.003-0.027-0.004
			C257.419,0.001,257.398,0,257.378,0h-3.125c-0.346,0-0.625,0.28-0.625,0.625s0.279,0.625,0.625,0.625h1.615l-3.933,3.933
			c-0.244,0.244-0.244,0.64,0,0.884s0.64,0.244,0.884,0l3.934-3.933V3.75c0,0.345,0.279,0.625,0.625,0.625
			c0.345,0,0.625-0.28,0.625-0.625V0.625C258.003,0.604,258.001,0.584,258,0.563z M248.186,8.933l-3.933,3.934V11.25
			c0-0.345-0.28-0.625-0.625-0.625c-0.346,0-0.625,0.28-0.625,0.625v3.125c0,0.021,0,0.041,0.002,0.063
			c0.002,0.01,0.004,0.018,0.004,0.027c0.002,0.01,0.004,0.021,0.006,0.033c0.002,0.01,0.005,0.02,0.008,0.031
			c0.002,0.008,0.004,0.018,0.007,0.027s0.007,0.02,0.011,0.029c0.003,0.01,0.006,0.02,0.01,0.029
			c0.004,0.008,0.008,0.018,0.013,0.026c0.005,0.01,0.009,0.019,0.014,0.028c0.005,0.009,0.01,0.018,0.015,0.025
			c0.006,0.01,0.011,0.018,0.018,0.027c0.006,0.01,0.012,0.018,0.02,0.027c0.005,0.007,0.01,0.014,0.016,0.021
			c0.014,0.016,0.027,0.031,0.041,0.045c0.001,0,0.001,0,0.001,0.001s0,0.001,0,0.001c0.015,0.014,0.03,0.027,0.046,0.041
			c0.008,0.006,0.015,0.01,0.021,0.016c0.01,0.008,0.018,0.014,0.027,0.02c0.009,0.006,0.018,0.012,0.027,0.018
			c0.008,0.004,0.017,0.01,0.025,0.014c0.01,0.006,0.019,0.01,0.028,0.015c0.009,0.004,0.018,0.009,0.026,0.013
			c0.01,0.004,0.02,0.006,0.028,0.01c0.011,0.004,0.021,0.008,0.03,0.01c0.01,0.004,0.019,0.006,0.027,0.008
			c0.012,0.003,0.021,0.006,0.031,0.008c0.012,0.002,0.022,0.004,0.033,0.006c0.01,0,0.019,0.002,0.027,0.004
			C243.587,15,243.607,15,243.628,15h3.125c0.345,0,0.625-0.279,0.625-0.625c0-0.345-0.28-0.625-0.625-0.625h-1.617l3.934-3.933
			c0.244-0.243,0.244-0.64,0-0.884S248.43,8.689,248.186,8.933z M257.378,10.625c-0.346,0-0.625,0.28-0.625,0.625v1.617
			l-3.934-3.934c-0.244-0.244-0.64-0.244-0.884,0s-0.244,0.641,0,0.884l3.933,3.933h-1.615c-0.346,0-0.625,0.28-0.625,0.625
			c0,0.346,0.279,0.625,0.625,0.625h3.125c0.02,0,0.041,0,0.061-0.002c0.01-0.002,0.019-0.004,0.027-0.004
			c0.012-0.002,0.023-0.004,0.033-0.006c0.012-0.002,0.021-0.005,0.031-0.008c0.01-0.002,0.02-0.004,0.028-0.008
			c0.011-0.002,0.021-0.006,0.03-0.01c0.009-0.003,0.019-0.006,0.027-0.01c0.01-0.004,0.018-0.009,0.027-0.013
			c0.01-0.005,0.02-0.009,0.028-0.015c0.009-0.004,0.017-0.01,0.025-0.014c0.009-0.006,0.019-0.012,0.026-0.018
			c0.01-0.006,0.019-0.012,0.027-0.02c0.008-0.006,0.016-0.01,0.022-0.016c0.016-0.014,0.03-0.027,0.046-0.041c0,0,0,0,0-0.001
			s0-0.001,0-0.001c0.016-0.014,0.028-0.029,0.041-0.045c0.006-0.008,0.012-0.015,0.018-0.021c0.006-0.01,0.014-0.018,0.02-0.027
			s0.011-0.018,0.016-0.027c0.006-0.008,0.011-0.017,0.016-0.025c0.005-0.01,0.01-0.019,0.014-0.028
			c0.004-0.009,0.008-0.019,0.012-0.026c0.004-0.01,0.008-0.02,0.011-0.029c0.004-0.01,0.007-0.02,0.011-0.029
			c0.002-0.01,0.005-0.02,0.008-0.027c0.002-0.012,0.005-0.021,0.007-0.031c0.003-0.012,0.003-0.022,0.005-0.033
			c0.002-0.01,0.004-0.018,0.004-0.027c0.002-0.021,0.004-0.041,0.004-0.063V11.25C258.003,10.905,257.723,10.625,257.378,10.625z
			 M245.136,1.25h1.617c0.345,0,0.625-0.28,0.625-0.625S247.098,0,246.753,0h-3.125c-0.021,0-0.041,0.001-0.063,0.003
			c-0.009,0.001-0.018,0.003-0.027,0.004c-0.011,0.002-0.021,0.003-0.033,0.005c-0.01,0.002-0.021,0.005-0.031,0.008
			c-0.009,0.002-0.018,0.005-0.027,0.007c-0.01,0.003-0.02,0.007-0.03,0.01c-0.009,0.004-0.019,0.007-0.028,0.011
			c-0.009,0.003-0.018,0.008-0.026,0.012c-0.01,0.004-0.019,0.009-0.028,0.014c-0.009,0.004-0.018,0.01-0.025,0.015
			c-0.01,0.005-0.019,0.011-0.027,0.017c-0.01,0.006-0.018,0.013-0.027,0.02c-0.007,0.006-0.015,0.011-0.021,0.017
			c-0.032,0.026-0.061,0.056-0.088,0.087c-0.006,0.007-0.011,0.015-0.016,0.022c-0.008,0.009-0.014,0.018-0.021,0.027
			c-0.006,0.009-0.011,0.018-0.017,0.027c-0.005,0.008-0.01,0.017-0.015,0.025c-0.005,0.009-0.009,0.019-0.014,0.028
			s-0.009,0.019-0.013,0.027c-0.004,0.009-0.007,0.019-0.01,0.028c-0.004,0.01-0.008,0.02-0.011,0.029s-0.005,0.019-0.007,0.028
			c-0.003,0.011-0.006,0.021-0.008,0.031s-0.004,0.022-0.006,0.033c0,0.009-0.002,0.018-0.004,0.027
			c-0.002,0.021-0.002,0.041-0.002,0.062V3.75c0,0.345,0.279,0.625,0.625,0.625c0.345,0,0.625-0.28,0.625-0.625V2.134l3.933,3.933
			c0.243,0.244,0.64,0.244,0.884,0s0.244-0.64,0-0.884L245.136,1.25z"/>
	</g>
</g>
</svg>
