<?xml version="1.0" encoding="utf-8"?>
<!-- Generator: Adobe Illustrator 16.0.0, SVG Export Plug-In . SVG Version: 6.00 Build 0)  -->
<!DOCTYPE svg PUBLIC "-//W3C//DTD SVG 1.1//EN" "http://www.w3.org/Graphics/SVG/1.1/DTD/svg11.dtd">
<svg version="1.1" id="Layer_1" xmlns="http://www.w3.org/2000/svg" xmlns:xlink="http://www.w3.org/1999/xlink" x="0px" y="0px"
	 width="29px" height="14px" viewBox="0 0 29 14" enable-background="new 0 0 29 14" xml:space="preserve">
<g display="none">
	<path display="inline" fill-rule="evenodd" clip-rule="evenodd" fill="#3498CB" d="M22.5,0C34.926,0,45,10.073,45,22.5
		S34.926,45,22.5,45C10.073,45,0,34.927,0,22.5S10.073,0,22.5,0z"/>
	<path display="inline" fill="#FFFFFF" d="M31.124,21.149H23.85v-7.274c0-0.331-0.45-1.05-1.351-1.05c-0.899,0-1.35,0.719-1.35,1.05
		v7.274h-7.274c-0.331,0-1.05,0.45-1.05,1.351c0,0.899,0.719,1.35,1.05,1.35h7.274v7.275c0,0.331,0.45,1.05,1.35,1.05
		c0.9,0,1.351-0.719,1.351-1.05V23.85h7.274c0.332,0,1.051-0.45,1.051-1.35C32.175,21.6,31.456,21.149,31.124,21.149z"/>
</g>
<g display="none">
	<path display="inline" fill-rule="evenodd" clip-rule="evenodd" fill="#3498CB" d="M68.502,0c12.426,0,22.5,10.073,22.5,22.5
		S80.929,45,68.502,45c-12.427,0-22.5-10.073-22.5-22.5S56.076,0,68.502,0z"/>
	<g display="inline">
		<g>
			<path fill="#FFFFFF" d="M59.878,20.25h17.25c0.331,0,1.05-0.45,1.05-1.351c0-0.899-0.719-1.35-1.051-1.35H59.878
				c-0.332,0-1.05,0.45-1.05,1.35C58.828,19.8,59.546,20.25,59.878,20.25z M77.127,24.75H59.878c-0.332,0-1.05,0.449-1.05,1.35
				c0,0.899,0.718,1.351,1.05,1.351h17.25c0.331,0,1.05-0.45,1.05-1.351S77.459,24.75,77.127,24.75z"/>
		</g>
	</g>
</g>
<path fill="#AEB0AF" d="M6.998,0.875c0.107,0,0.213,0.13,0.293,0.391l1.27,4.106h4.111c0.523,0,0.604,0.262,0.182,0.584L9.528,8.494
	l1.27,4.104c0.105,0.34,0.053,0.527-0.114,0.527c-0.09,0-0.211-0.053-0.359-0.165l-3.326-2.538L3.673,12.96
	c-0.147,0.112-0.27,0.165-0.358,0.165c-0.167,0-0.22-0.188-0.115-0.527l1.27-4.104L1.146,5.956c-0.423-0.322-0.342-0.584,0.18-0.584
	h4.111l1.27-4.106C6.789,1.005,6.894,0.875,6.998,0.875 M6.998,0C6.754,0,6.153,0.098,5.871,1.007l-1.08,3.489H1.326
	c-0.916,0-1.194,0.533-1.272,0.762C-0.024,5.49-0.125,6.087,0.614,6.652l2.84,2.166L2.365,12.34
	c-0.157,0.506-0.116,0.924,0.12,1.246C2.679,13.85,2.981,14,3.315,14c0.293,0,0.584-0.112,0.889-0.344l2.794-2.134l2.797,2.133
	C10.101,13.888,10.391,14,10.684,14c0.333,0,0.635-0.15,0.83-0.414c0.236-0.322,0.277-0.74,0.119-1.246l-1.088-3.521l2.838-2.166
	c0.742-0.566,0.639-1.163,0.561-1.394c-0.075-0.229-0.355-0.762-1.271-0.762H9.207l-1.08-3.489C7.846,0.098,7.245,0,6.998,0L6.998,0
	z"/>
<path fill="#FDCF17" d="M21.745,0c-0.244,0-0.846,0.098-1.127,1.007l-1.08,3.489h-3.465c-0.916,0-1.194,0.533-1.272,0.762
	c-0.078,0.231-0.179,0.828,0.561,1.394l2.84,2.166l-1.089,3.521c-0.157,0.506-0.116,0.924,0.12,1.246
	C17.426,13.85,17.729,14,18.062,14c0.293,0,0.584-0.112,0.889-0.344l2.794-2.134l2.797,2.133C24.848,13.888,25.138,14,25.431,14
	c0.333,0,0.635-0.15,0.83-0.414c0.236-0.322,0.277-0.74,0.119-1.246l-1.088-3.521l2.838-2.166c0.742-0.566,0.639-1.163,0.561-1.394
	c-0.075-0.229-0.355-0.762-1.271-0.762h-3.465l-1.08-3.489C22.593,0.098,21.992,0,21.745,0L21.745,0z"/>
</svg>
