<?xml version="1.0" encoding="utf-8"?>
<!-- Generator: Adobe Illustrator 16.0.0, SVG Export Plug-In . SVG Version: 6.00 Build 0)  -->
<!DOCTYPE svg PUBLIC "-//W3C//DTD SVG 1.1//EN" "http://www.w3.org/Graphics/SVG/1.1/DTD/svg11.dtd">
<svg version="1.1" id="Layer_1" xmlns="http://www.w3.org/2000/svg" xmlns:xlink="http://www.w3.org/1999/xlink" x="0px" y="0px"
	 width="102.773px" height="24.75px" viewBox="0 0 102.773 24.75" enable-background="new 0 0 102.773 24.75" xml:space="preserve">
<g>
	<path fill-rule="evenodd" clip-rule="evenodd" fill="#F3F3F3" d="M12.5,0C19.403,0,25,5.597,25,12.5S19.403,25,12.5,25
		C5.596,25,0,19.403,0,12.5S5.596,0,12.5,0z"/>
	<path fill="#AAAAAA" d="M16.734,11.837h-3.572V8.266c0-0.163-0.221-0.516-0.662-0.516c-0.442,0-0.663,0.353-0.663,0.516v3.571
		H8.266c-0.163,0-0.516,0.222-0.516,0.663s0.353,0.663,0.516,0.663h3.571v3.571c0,0.162,0.221,0.516,0.663,0.516
		c0.441,0,0.662-0.354,0.662-0.516v-3.571h3.572c0.162,0,0.516-0.222,0.516-0.663S16.896,11.837,16.734,11.837z"/>
</g>
<g>
	<path fill-rule="evenodd" clip-rule="evenodd" fill="#F3F3F3" d="M38.501,0c6.903,0,12.5,5.597,12.5,12.5S45.405,25,38.501,25
		c-6.904,0-12.5-5.597-12.5-12.5S31.598,0,38.501,0z"/>
	<path fill="#AAAAAA" d="M43.161,11.771c0.179,0,0.567,0.243,0.567,0.729s-0.389,0.729-0.567,0.729h-9.318
		c-0.179,0-0.567-0.243-0.567-0.729s0.389-0.729,0.567-0.729H43.161z"/>
</g>
<g>
	<path fill-rule="evenodd" clip-rule="evenodd" fill="#E8E8E8" d="M64.502,0c6.903,0,12.5,5.597,12.5,12.5S71.406,25,64.502,25
		c-6.904,0-12.5-5.597-12.5-12.5S57.599,0,64.502,0z"/>
	<path fill="#AAAAAA" d="M68.737,11.837h-3.572V8.266c0-0.163-0.221-0.516-0.662-0.516c-0.442,0-0.663,0.353-0.663,0.516v3.571
		h-3.571c-0.163,0-0.516,0.222-0.516,0.663s0.353,0.663,0.516,0.663h3.571v3.571c0,0.162,0.221,0.516,0.663,0.516
		c0.441,0,0.662-0.354,0.662-0.516v-3.571h3.572c0.162,0,0.516-0.222,0.516-0.663S68.899,11.837,68.737,11.837z"/>
</g>
<g>
	<path fill-rule="evenodd" clip-rule="evenodd" fill="#E8E8E8" d="M90.504,0c6.904,0,12.501,5.597,12.501,12.5S97.408,25,90.504,25
		c-6.903,0-12.5-5.597-12.5-12.5S83.601,0,90.504,0z"/>
	<path fill="#AAAAAA" d="M95.164,11.771c0.179,0,0.567,0.243,0.567,0.729s-0.389,0.729-0.567,0.729h-9.319
		c-0.179,0-0.567-0.243-0.567-0.729s0.389-0.729,0.567-0.729H95.164z"/>
</g>
</svg>
