<?xml version="1.0" encoding="utf-8"?>
<!-- Generator: Adobe Illustrator 16.0.0, SVG Export Plug-In . SVG Version: 6.00 Build 0)  -->
<!DOCTYPE svg PUBLIC "-//W3C//DTD SVG 1.1//EN" "http://www.w3.org/Graphics/SVG/1.1/DTD/svg11.dtd">
<svg version="1.1" id="shop_icon_1_" xmlns="http://www.w3.org/2000/svg" xmlns:xlink="http://www.w3.org/1999/xlink" x="0px"
	 y="0px" width="77px" height="64px" viewBox="0 0 77 64" enable-background="new 0 0 77 64" xml:space="preserve">
<g id="Ellipse_5_copy" opacity="0.149">
	<g>
		<ellipse fill-rule="evenodd" clip-rule="evenodd" fill="#3498CB" cx="32" cy="32" rx="31.993" ry="32.006"/>
	</g>
</g>
<g id="Shape_1">
	<g>
		<path fill-rule="evenodd" clip-rule="evenodd" fill="#3498CB" d="M74.809,57.439h-4.963V36.476
			c3.602-0.652,6.342-3.812,6.342-7.602V25.7c0-0.05-0.002-0.099-0.008-0.146c0-0.009-0.002-0.018-0.004-0.025
			c-0.004-0.04-0.01-0.08-0.019-0.118c-0.003-0.011-0.006-0.021-0.008-0.03c-0.009-0.037-0.019-0.073-0.03-0.109
			c-0.004-0.012-0.009-0.023-0.014-0.035c-0.012-0.033-0.023-0.066-0.038-0.098c-0.002-0.005-0.003-0.01-0.006-0.015l-6.217-13.525
			V6.38c0-0.762-0.617-1.38-1.379-1.38H17.722c-0.761,0-1.379,0.618-1.379,1.38v5.219l-6.217,13.524
			c-0.002,0.005-0.003,0.01-0.006,0.015c-0.014,0.031-0.026,0.064-0.039,0.098c-0.004,0.012-0.009,0.023-0.013,0.035
			c-0.012,0.035-0.021,0.072-0.03,0.109c-0.002,0.01-0.006,0.02-0.008,0.03c-0.009,0.038-0.015,0.078-0.02,0.118
			c-0.001,0.008-0.002,0.017-0.004,0.025C10.002,25.602,10,25.65,10,25.7v3.174c0,3.79,2.741,6.949,6.343,7.602v20.964h-4.964
			c-0.762,0-1.379,0.618-1.379,1.381c0,0.762,0.617,1.38,1.379,1.38h6.343h5.516h11.032h34.198h6.342c0.762,0,1.38-0.618,1.38-1.38
			C76.188,58.058,75.57,57.439,74.809,57.439z M72.657,24.32h-9.484l-3.045-11.04h7.454L72.657,24.32z M50.811,25.573L49.68,13.28
			h7.588l3.045,11.04h-5.168c-0.761,0-1.379,0.617-1.379,1.38c0,0.762,0.618,1.38,1.379,1.38h5.6v1.794
			c0,2.739-2.227,4.968-4.964,4.968s-4.964-2.229-4.964-4.968V25.7C50.816,25.657,50.814,25.615,50.811,25.573z M19.101,7.76h47.987
			v2.761H19.101V7.76z M43.279,24.32h-5.017l1.015-11.04h7.633l1.148,12.483v3.11c0,2.739-2.228,4.968-4.965,4.968
			s-4.964-2.229-4.964-4.968V27.08h5.149c0.762,0,1.379-0.618,1.379-1.38C44.658,24.938,44.041,24.32,43.279,24.32z M34.504,27.08
			h0.868v1.794c0,2.739-2.227,4.968-4.964,4.968c-2.737,0-4.964-2.229-4.964-4.968v-2.987L28.92,13.28h7.587l-1.015,11.04h-0.989
			c-0.761,0-1.379,0.617-1.379,1.38C33.125,26.462,33.743,27.08,34.504,27.08z M12.758,28.874V27.08h3.732
			c0.761,0,1.379-0.618,1.379-1.38c0-0.763-0.618-1.38-1.379-1.38h-2.959l5.075-11.04h7.454l-3.324,12.053
			c-0.033,0.119-0.05,0.243-0.05,0.367v3.174c0,2.739-2.227,4.968-4.963,4.968C14.984,33.842,12.758,31.613,12.758,28.874z
			 M32.89,48.47h-1.379c-0.762,0-1.379,0.618-1.379,1.38c0,0.763,0.617,1.38,1.379,1.38h1.379v6.21h-8.274V42.26h8.274V48.47z
			 M67.088,57.439h-31.44V40.88c0-0.763-0.618-1.381-1.379-1.381H23.237c-0.762,0-1.379,0.618-1.379,1.381v16.56h-2.758V36.476
			c2.049-0.371,3.818-1.553,4.964-3.202c1.396,2.01,3.718,3.328,6.343,3.328c2.625,0,4.947-1.318,6.343-3.328
			c1.396,2.01,3.718,3.328,6.343,3.328s4.947-1.318,6.344-3.328c1.396,2.01,3.717,3.328,6.343,3.328
			c2.625,0,4.946-1.318,6.343-3.328c1.146,1.649,2.915,2.831,4.965,3.202V57.439z M68.466,33.842c-2.737,0-4.964-2.229-4.964-4.968
			V27.08h9.928v1.794C73.43,31.613,71.203,33.842,68.466,33.842z M62.95,39.5H39.785c-0.762,0-1.379,0.618-1.379,1.38V53.3
			c0,0.762,0.618,1.38,1.379,1.38H62.95c0.761,0,1.379-0.618,1.379-1.38V40.88c0-0.046-0.003-0.092-0.007-0.137
			c-0.002-0.019-0.006-0.037-0.008-0.056c-0.004-0.026-0.007-0.052-0.012-0.078c-0.005-0.021-0.011-0.043-0.016-0.064
			c-0.006-0.022-0.012-0.044-0.018-0.066c-0.006-0.021-0.015-0.042-0.021-0.063c-0.008-0.021-0.016-0.044-0.024-0.065
			c-0.008-0.019-0.017-0.037-0.026-0.056c-0.01-0.022-0.02-0.044-0.031-0.066c-0.01-0.018-0.021-0.034-0.031-0.051
			c-0.012-0.022-0.024-0.044-0.039-0.065c-0.012-0.018-0.025-0.035-0.039-0.053c-0.014-0.019-0.025-0.037-0.041-0.055
			c-0.024-0.03-0.051-0.059-0.077-0.087c-0.005-0.004-0.009-0.01-0.014-0.015c-0.004-0.004-0.009-0.008-0.014-0.012
			c-0.028-0.027-0.057-0.055-0.087-0.079c-0.018-0.014-0.035-0.026-0.053-0.039c-0.019-0.014-0.037-0.028-0.056-0.041
			c-0.021-0.014-0.042-0.025-0.062-0.038c-0.019-0.01-0.036-0.021-0.055-0.031c-0.021-0.012-0.043-0.021-0.064-0.031
			c-0.019-0.009-0.037-0.019-0.058-0.026c-0.021-0.009-0.042-0.016-0.063-0.023s-0.042-0.016-0.064-0.022
			c-0.021-0.007-0.042-0.011-0.063-0.017c-0.022-0.006-0.044-0.012-0.067-0.017s-0.049-0.008-0.074-0.011
			c-0.02-0.003-0.039-0.007-0.059-0.009C63.041,39.502,62.996,39.5,62.95,39.5z M41.164,51.92v-9.66H51.82l-0.592,0.593
			c-0.539,0.538-0.539,1.412,0,1.951c0.27,0.27,0.622,0.404,0.975,0.404c0.354,0,0.706-0.135,0.975-0.404l2.543-2.544h3.9
			l-9.652,9.66H41.164z M61.571,51.92h-7.702l7.702-7.709V51.92z M48.027,46.056l-0.6,0.601c-0.539,0.539-0.539,1.412,0,1.952
			c0.269,0.269,0.621,0.403,0.975,0.403c0.353,0,0.705-0.135,0.975-0.404l0.601-0.601c0.538-0.539,0.538-1.412,0-1.951
			S48.566,45.517,48.027,46.056z"/>
	</g>
</g>
</svg>
